<svg xmlns="http://www.w3.org/2000/svg" viewBox="0 0 234 220"><defs><style>.cls-1{opacity:0.01;}.cls-2{fill:#fff;}.cls-3{fill:#e0d5c0;}.cls-4{fill:#c6c6c6;}.cls-5{fill:#ef7e70;}.cls-6{fill:#91c020;}.cls-7{fill:#f49849;}.cls-8{fill:#fbdf95;}.cls-9{fill:#1a1a1a;}</style></defs><title>3</title><g id="Layer_2" data-name="Layer 2" class="cls-1"><rect class="cls-2" width="234" height="220"/></g><g id="_3_Prepare" data-name="3 Prepare"><path class="cls-3" d="M39.8,144.18c.66-2.95-.66-5.24-1.63-7.53s-2.27-6.23-2.27-6.23c-1.63-.33-30.39-5.9-24.68,12.6,2.46,8,6.37,11.3,9.31,11.3S39.14,147.13,39.8,144.18Z"/><path class="cls-3" d="M205.15,132.26c-7.87-.56-16.57-13.7-24.4-12.63C171,121,169.68,123.1,168,126c-2.53,4.46-18.6,8.28-22.2,8.28S122.63,135.62,120,136s-2.62,4.26-5.23,8.84-6.86,8.52-16.34,9.17-31.69,4.58-35.94,4.26a32.77,32.77,0,0,0-8.17.49c-3.92,2.29-18.46,10.15-17.15,13.76.71,2-12.25,10.59,7.92,22.81,10.68,6.47,43.49,13.21,54.33,9.13,3.92-1.48.49-4.91-5.88-7.37a96.76,96.76,0,0,1-12.74-5.9C78.52,188.19,77.37,182,82,176.4s42.15-29.48,44.42-31.12,12.74-8.19,16-8.84,15.19.82,27.61,4.75c4.21,1.35,7.7,2.66,10.59,3.6,1.79.79,3.87,1.56,6.07,2.3,6.86,2.29,8.49,2,11.44,6.55s.66,7.2-2,14.08-14,16.05-14,16.05-15.86,12-23.78,19.34a2.81,2.81,0,0,1,.45.94c.66,2.29,7,2.95,13.89,2,2.16-.31,13.46-5.11,17.32-6.88,15.71-7.2,12.74-14.4,15.71-26.86s12.09-14.4,16.67-21S217.11,133.11,205.15,132.26Z"/><path class="cls-4" d="M51.72,141.39c-4.57,3.27-16.67,13.1-24.18,16.05s-8.49,1-9.8,6.88-2.94,7.2,2.62,8.19,8.17-2.29,13.72-6.23,15-9.5,19.93-12.78a53.53,53.53,0,0,0,7.52-5.9l-1.63-3.93Z"/><path class="cls-5" d="M42.25,133.53c-.66,3.93-1.31,9.83,1.63,10.15s4.25-2,6.21-2.95,0,0,6.21,1,4.9-1,4.9,2.95,3.27,4.26.66,6.55-4.57,4.58,2.29,3.93,39.54-6.88,41.82-8.52,5.56-5.24,6.53-8.84,3.35-8.68,2.37-9-5.64,2.21-5.64,2.21-2.69,2.29-8.58,2.95-15.85,2.69-23,3.66-12.5.16-17.4-.49a123.8,123.8,0,0,1-14.36-3.27A17.27,17.27,0,0,0,42.25,133.53Z"/><path class="cls-4" d="M172.95,78.46a13.14,13.14,0,0,0-5.13-1.23,2.93,2.93,0,0,1-1-.25c-1.27-1-15.95-3.7-21.34-4.91s-25.24-1.23-32.35.74-9.8-.74-13.23,2.21S95.51,76.74,96,79.44a7.88,7.88,0,0,0,.66,2c-2.24.76-2.82.19-4.58,2.4-2,2.46-3.19,2.46-2.69,4.42s-.25,3.19,2.69,3.93a49,49,0,0,0,5.55,1c.77,4.26.38,7.55,1.07,11a14.56,14.56,0,0,0,2.21,5.61c1,3.44-1.47,2.95,3.19,4.91s8.82,1.72,11,5.4,0,6.39,1.71,9.09,5.88,3.19,17.64,2.46,26.71-5.65,29.41-9.83,2-21.34,3.43-27.23a32.35,32.35,0,0,0,1.13-6.7c4.55-2.3,7.7-4.73,7.7-6.32S174.42,79.19,172.95,78.46ZM94.29,85.34s1.79-1.58,3-2.84l.26.36c0,3.15-.65,5.23-.32,8a13.93,13.93,0,0,1-2.69-.77C92.44,89.27,94.29,85.34,94.29,85.34Zm31.36,2.21c-14.54-1.56-22.55-3.19-24.26-4.42-1.22-.87-2.81-4.11-3.54-4-.29-.9,0-1.63,2.07-2.1,4.41-1,21.57-3.68,31.61-3.19S150.39,73,157,75.26c4.68,1.57,7.4,2.51,8.76,3.11,0,.22.25.45,1,.58l.12,1.23.09.6C164,81.83,138.77,89,125.64,87.54Zm47.3-5.16A11.34,11.34,0,0,1,168,84.6h0c0-.15-.1-.3-.15-.45l.18-1.89s-.57-.62.25-2.25c2.14.45,2.45.17,2.45.17,1.48,1,4.17.49,2.21,2.21Z"/><path class="cls-6" d="M106.29,126.33c-.66-3.27-2.24-3.07-3.06-5.37s-2.29-1.8-5.56-1.31-3.52-.95-5.15.69-7.74,1-8.75-.11c-2.24-2.51-2-1.91-2.8-2.25-1.39-.59-5.51.85-7.48,1a1.79,1.79,0,0,0-1.25.54,5,5,0,0,1,3.14,2c1.23,1.6,1.57,5.52,1.29,5.57a17.07,17.07,0,0,1-4.18,1.12c-5,.34-7.88,1-8.33-1.18-.19-.29-.79-4.59-1.12-4.84a2.45,2.45,0,0,0-3.59.51,3.86,3.86,0,0,0-.37.58l.92-.65a3.59,3.59,0,0,1,2,.9l-.25.13c.35.27.48.29.54.25v0a3.28,3.28,0,0,1,0,2.89c-.45.67,0,0-.9,0s-1.54-.65-2.63-1.1c0,0-1.47-2-1.48-2a3.9,3.9,0,0,1-1.82,3c-1,.65-.8,1.91-2.6,1.58s-2.29-.82-4.08-.16-2,2.12-2,3.77c0,.33,4.25,1.31,7,2.62s7,1.64,11.11,1.64,15.85-.82,19.12-1.64c2.1-.53,9.6-2,14.17-2a10.07,10.07,0,0,0,3.32-.36c-.56-.23-1.11-.63-1.87-.94-1.11-.45-.22-2-.22-2l2.44-2s2.42,1,3.11,2.22a2.55,2.55,0,0,1,.31,1A4.89,4.89,0,0,0,106.29,126.33ZM72,133.79c-.45.67-1.79,0-2.66,0s-1.55-.67-2.66-1.11-.22-2-.22-2l2.44-2s2.42,1,3.11,2.22a3.28,3.28,0,0,1,0,2.89Zm18.29-6.61c-.45.67-1.79,0-2.66,0s-1.55-.67-2.66-1.11-.22-2-.22-2l2.44-2s2.42,1,3.11,2.22a3.28,3.28,0,0,1,0,2.89Z"/><path class="cls-7" d="M90.28,124.36c-1.31-1.31-1.47-1.64-3.59-.66s-3.11,1.64-1.47,2.62,2.12,1,3.43.66a8.27,8.27,0,0,0,2.45-1.15Z"/><path class="cls-7" d="M70.68,129.11c-1.79.16-2.45.49-3.11,1.48s-.66,2.13.16,2.29,1,.49,2,.16a9.89,9.89,0,0,0,2.12-1.15l.16-1.31-.63-1.48h-.67Z"/><path class="cls-7" d="M61.92,124.59c-1.14-1.48-.33-3.11-1.79-2.46A7.52,7.52,0,0,0,58,123.45l-.66,3.11,2,1.31,2.45-.82Z"/><path class="cls-7" d="M102,128l-1.79,1.48s-.66,1.15.16,1.48,1.31.82,2,.82,1.63.49,2,0a2.42,2.42,0,0,0,0-2.13A6.12,6.12,0,0,0,102,128Z"/><path class="cls-4" d="M161,156.13c.82-1,3.59-3.77,1.79-3.11s-5.23,2.46-5.23,2.46-9.48,7.86-10.94,9.33-2.62,2.13-2.12,3.27,2.45,1.8,4.08,1.15,9-8.35,9-8.35Z"/><path class="cls-4" d="M148.44,171.53c-.82-1.31-1.31-2.13-2.62-1.64s-1-.33-3.76,2-7.18,4.09-8.17,6.55-1.47,2-1.47,4.91.49,4.09,1,4.91-.16,4.42,2.62,1,7-9.82,8-10.64a51.11,51.11,0,0,0,4.08-5.4Z"/><path class="cls-3" d="M177.2,153c-2.78-.16-2.62-1.48-5.38-.16a10.36,10.36,0,0,0-5.23,4.26c-1.79,2.46-2.29,2.62-2.12,4.91s.82,2.13-.66,4.09-15.36,19.49-17,21.78-3.27,3.27-1.14,4.42,2.78,2,5.38-.49,8.49-6.23,10.62-10,6.37-11.63,9.8-13.59,8.66-4.75,10.94-7.7,2.12-3.93.82-4.75S177.2,153,177.2,153Z"/><path class="cls-6" d="M118.05,166.45c-1-1.31-3.59-1.15-4.9-.33s-1.47.82-1.63,2.13-.49,2.95-.49,2.95l-2.45,2.29s-2.45.49-3.59-.16-.82-1.8-2.94-.66-3.43,1.64-3.76,2.95-2.12,2.29-.66,3.36,3.11,2.21,4.9,1.88a21.45,21.45,0,0,0,4.41-1.64l2.12,1.15,2.78,1.8s4.57-1.8,4.74-2.29.49-2.46.49-2.46.16-1.8.33-2.46-1.14,1.15.49-1.31,1.63-3.11,1.63-3.11Z"/><path class="cls-7" d="M130.47,161.7c-1.47-.33-2.29-1.31-3.92-.49a2.44,2.44,0,0,0-1.39,2.46,1.75,1.75,0,0,0,.08,2.46c1.14,1.48,1,2,2.37,2s2.69-2,2.69-2Z"/><path class="cls-7" d="M137.66,164.32c-2.62.16-2.94.49-3.43,1.15s1.22,4.09,1.22,4.09,2.53.49,3.67-.66,2.12-1.48,2.12-2.46a2,2,0,0,0-.9-1.56Z"/><path class="cls-7" d="M132.76,155.48c-.66-.33-2.12-1.15-2.94-.33a3.42,3.42,0,0,0-1.14,2.46c0,.82.82,1.48,1.79,1.8a9.64,9.64,0,0,1,2,1s1.63,1.31,2.29,1.15,2.45-.49,2.45-.49l1.14-1.48.49-1.8L137,156.62l-1.94-.65-1.31.33Z"/><path class="cls-7" d="M140.6,147.62a3.17,3.17,0,0,0-2.78-1.48c-1.14,0-1.63-.33-2.29.82a4.1,4.1,0,0,0-.16,2.78l1.63,1.8,1.47,1.39,1.71,1.23s3.35.66,3,1.31-2.45,1.48-2.45,2.78.49,4.91,2.62,4.58a6.33,6.33,0,0,0,3.59-2.29s.16-1.31.16-2.13a8.05,8.05,0,0,0-.49-2.13s.66-1.48,1.47-1.64l2.62-.49,2.12-2.62a10.07,10.07,0,0,0-1.14-2.46,6.56,6.56,0,0,0-2.62-1.31c-.82-.16-1.47,1.8-1.47,1.8l-2.45.16a2.14,2.14,0,0,0-1.47-.49h-1.63Z"/><path class="cls-8" d="M194.74,152.86c-4.41-2.95-37.49-11.55-39.7-12.29s-6.62-1.72-6.62-1.72c-7.35.49-19.12,9.83-19.12,9.83s-27.45,17.93-31.1,20.39-6.37,4.17-9.31,7.13-3.19,1.72-3.43,4.67-.74,3.19,0,5.9-2.45,3.68,3.92,5.9,43.38,20.14,50.73,17.2,38-29.48,38-29.48,16.65-14.75,17.89-18.19S199.17,155.8,194.74,152.86Zm-66.9,2.7c.25-1.72,3.92-1.48,3.92-1.48a19.52,19.52,0,0,1,3.92,1.23,21.36,21.36,0,0,0,3.19,1.23l1.47-2.21a3.64,3.64,0,0,0-1.71-1.23,15.64,15.64,0,0,1-2.45-1L134,149.17a38.16,38.16,0,0,1,2-3.44c1-1.48,2.69.49,2.69.49l2.69,1a3.87,3.87,0,0,0,3.19,1.48c2.21,0,1,1.48,2.21.49s.74-1.72,2.94-2,2,.49,3.67,2.21l-.25,2-.25.74a13.86,13.86,0,0,0-.49,2.46c-.22,1.48-1,.74-2.92,1.48s-2,1.23-2,1.23l.49,2.21a15.76,15.76,0,0,1-1.22,2.7c-.74,1.23-1.71,0-3.67.25S140.6,158,140.11,159s-.25,2-1.71,2.46a20.28,20.28,0,0,1-4.68.74,2.15,2.15,0,0,1-2.45-2,8.77,8.77,0,0,1-2.69-1c-1.21-.74-1-2-.72-3.68Zm14,11.55a4.21,4.21,0,0,1-1.71,2.7c-1,.73-2.21,0-4.66-.25s-1.22-2.95-1.22-2.95,1.22-1.48,2-2.46,1.71-1,4.16.74c0,0,1.49,1.48,1.49,2.22Zm-24,9.83s.25,2.21.25,3.44-2.94,2-4.41,2.95-3.67-1.23-3.67-1.23-2-1.72-3.19-1.48a13.64,13.64,0,0,1-4.9.49c-2.21-.25-3.19-1.48-4.9-2.46s-.49-2.46-.25-3.93,1.47-2,2.69-2.95,4.66,0,5.88,0a5.79,5.79,0,0,0,3.92-1.72c.74-1-.25-2.21,0-3.44s2.56-2.91,2.89-3.15l0,0,0,0c-.11.11-.13.49,4.21.71,5.15.25,2.45,2.46,2.45,2.46L120,171.3a13.07,13.07,0,0,1-2.69,3.93Zm12-9.33a5.45,5.45,0,0,1-2.21.49c-1.22,0-2.69-3.68-2.45-4.42s2-1.23,2-1.23a2,2,0,0,1,2.94.49ZM137.48,190s-3.59.66-5.72-1-1.14-3.11.33-7.37,6-6.55,6-6.55,5.91-4.43,6.55-5.59-1.31-.33-1.14-2,1.63-2.62,5.72-6.06,13.56-10.15,16-10.8l.66-.16a3.13,3.13,0,0,1-.66,3.11c-1.31,1.64-8.17,9.83-10.46,11.14S137.5,190,137.5,190Zm47.87-29.64c-1.31,1.8-9.15,6.88-9.15,6.88a68.12,68.12,0,0,0-6.37,3.77c-1.14,1-2.45,5.57-5.7,9.17s-6.21,6.39-8.17,8.68-1.79,3.77-6,5.73-5.23-.33-5.72-3.44,1-2.62,5.23-7.37,7.68-8.68,9.8-12.29,2.94-4.91,3.59-7.53,0-3.11,1.79-5.73a33.31,33.31,0,0,1,7.18-7.2,52,52,0,0,1,9.15,1.31,15.06,15.06,0,0,1,5.38,2.95s.34,3.27-1,5.07Z"/><path class="cls-8" d="M171.65,156.92a27.47,27.47,0,0,1,2.5-2.84c-1.94-1.09-9,6.06-8.08,6.6S171.34,157.53,171.65,156.92Z"/><path class="cls-8" d="M175.28,157.4l2.29-2.33.09-.63c-2-.72-9.73,6-7.89,7.39S175.28,157.4,175.28,157.4Z"/><path class="cls-8" d="M174.93,159.58s-3.09,3.35-2.72,3.72,2.09-.34,2.09-.34l.26-.22,5.24-5.09,1.13-1.9v-.39C179.07,154.95,174.93,159.58,174.93,159.58Z"/><path class="cls-4" d="M119.49,80.59c-1.1.54-.87,1.15.12.85s6.25-1.3,8.16-1.08,1.16.45,3.24,1.3,2.43,1.61,4.17.54A11.3,11.3,0,0,1,142,80.74c2,.38,6.08.31,7.87,1.23s3,1.76,2.78.54a1.41,1.41,0,0,0-1.5-1.15s-9.67-1.92-11.63-1.53-3.53,1.92-5.27,1.92-2.08-.54-3.41-1.15a12.09,12.09,0,0,0-5.56-.9,31.14,31.14,0,0,0-4.34.61Z"/><path class="cls-4" d="M145.83,83.06a2.42,2.42,0,0,0-1.1-.9c-2,.51-2.37,2.15-.32,2.25S146.1,83.63,145.83,83.06Zm-.45.45c0,.36-.36.31-.85.36s-.79,0-.83-.45.15-.55,1.08-.63c0,0,.61.38.61.74Z"/><path class="cls-4" d="M128.84,82.39a2.36,2.36,0,0,0-1.49-.61c-1.22.2-.81,1.9-.81,1.9,1.42,1.22,2,1.15,2.44.2S129.23,82.94,128.84,82.39ZM128.16,84c-.47.2-.81-.07-1-.54s-.4-.9.34-1.08c0,0,.81.2.95.68s.21.75-.26.95Z"/><path class="cls-4" d="M112.78,79.58c-.29.31-.08,1-.08,1,.45.81,1.54.45,1.54.45.53-1,.34-1.44-.45-1.66S113.08,79.29,112.78,79.58Zm1.27.36a.42.42,0,0,1-.14.72c-.29.17-.53.33-.85-.17,0,0,0-.56.26-.68a.52.52,0,0,1,.72.12l0,0Z"/><path class="cls-4" d="M157.85,80a2.06,2.06,0,0,0-1.27-.51c-1,.17-.69,1.58-.69,1.58,1.21,1,1.73,1,2.07.17S158.19,80.44,157.85,80Zm-.57,1.3a.64.64,0,0,1-.87-.45c-.18-.4-.35-.73.29-.9,0,0,.69.17.81.56s.17.62-.23.79Z"/><path class="cls-4" d="M140.36,83.18c.11-.45-.37-1.1-.37-1.1-.69-.64-1.44.22-1.44.22,0,1.29.32,1.62,1,1.51S140.25,83.63,140.36,83.18Zm-1.18.18a.53.53,0,0,1-.24-.71l.06-.09c.17-.3.3-.57.76-.2,0,0,.27.55.07.81s-.32.4-.66.2Z"/><path class="cls-3" d="M76.21,125.46a9.17,9.17,0,0,0-3-4.14,27.71,27.71,0,0,0-4.08-2.63,10.67,10.67,0,0,1-3.24-2,42.32,42.32,0,0,1-3.37-4l-9.76-8.55s-3.67-4-4.55-4.7-2.93-1.71-3.62.26-1.16,2.38-.48,3.68a36.49,36.49,0,0,1,1.49,3.57,14.07,14.07,0,0,1,4.72,3.47c2.75,2.79,5.22,3.6,6.73,5.2s4.41,4.2,5.46,5.74.83,2.54,1.71,4.12-1,3.07,1.35,2.44,1.88-1.49,4.16-1.16,1.91,1.53,3.72.85,2.88-.18,2.58-1.28.22-.85.22-.85"/><path class="cls-9" d="M117.3,125a4.46,4.46,0,0,1-.37-1.14,6.82,6.82,0,0,0-.22-.9,4.37,4.37,0,0,0-.79-1.58c-.28-.33-.6-.63-.86-1a12.1,12.1,0,0,0-1.6-1.58,6.76,6.76,0,0,0-2.27-1.35c-.22-.08-.42-.17-.63-.26a11.58,11.58,0,0,0-1.61-.56l-3.46-.94c-1.15-.31-3.05-.73-4.22-1l-1.66-.38a42.12,42.12,0,0,0-5.73-.82c-1.35-.08-2.69-.07-4-.1a27.09,27.09,0,0,1-2.76-.12,8.13,8.13,0,0,0-1.47-.06,4.55,4.55,0,0,1-.61,0c-.82-.06-1.79.13-2.62.06-.48,0-.92.26-1.4.21a13.54,13.54,0,0,0-2.65.22H76.15c-1.18.06-4.61.59-5.79.67-.9.05-1.28.1-2.17.17l-1,.09h0a2.44,2.44,0,0,0,.25,1.17h0c.53-.06,1.07-.11,1.61-.12s.74-.07,1.35-.12c.39,0,.76-.12,1.15-.14s.77,0,1.16,0c1,0,4.29-.56,5.31-.62a4.15,4.15,0,0,1,1.15.07c.45.1.76-.24,1.21-.21.77.06,1.15-.3,1.92-.24.5,0,.78-.12,1.28-.08s.9,0,1.27,0a16.56,16.56,0,0,1,1.79.1c.45,0,.9.06,1.35.09q1.53.11,3.06.13a25.18,25.18,0,0,1,2.86.16c.31,0,.64,0,1,.08a40.16,40.16,0,0,1,4.42.72c.9.2,1.79.36,2.73.5a22.42,22.42,0,0,1,2.83.65c.63.19,1.28.32,1.92.5.9.25,1.79.49,2.69.77a17.13,17.13,0,0,1,1.79.7,6.28,6.28,0,0,1,1.11.64c.74.53,1.45,1.1,2.18,1.65l.55.41a3.35,3.35,0,0,1,1.28,2,.45.45,0,0,1,0,.27.9.9,0,0,0,0,.72.37.37,0,0,1-.06.26c-.26.42-.51.84-.78,1.25a4.62,4.62,0,0,1-.66.76,7,7,0,0,1-1.56,1l-1.79.85-.19.08a23.56,23.56,0,0,1-3.59,1.45l-1.27.41-3.38,1c-.33.09-.66.17-1,.23a.39.39,0,0,1-.26-.05.27.27,0,0,1,0-.19.24.24,0,0,0-.19-.25l-.9-.28c-.24-.08-.48-.15-.7-.25a.32.32,0,0,1-.16-.51,4,4,0,0,1,.35-.49.6.6,0,0,1,.13-.12,2.53,2.53,0,0,0,.86-.9.86.86,0,0,1,1.15-.36,6.5,6.5,0,0,0,.93.17.36.36,0,0,1,.28.19,6.66,6.66,0,0,0,.94,1.51,4,4,0,0,1,.31.45.19.19,0,0,0,.27,0l0,0a.38.38,0,0,0,0-.33,1,1,0,0,0-.15-.3,7.77,7.77,0,0,0-.54-.61,1.44,1.44,0,0,1-.34-.5c0-.11-.09-.21-.13-.31a.9.9,0,0,0-.67-.53h-.07l-1.35-.24a1.12,1.12,0,0,0-.9.18,7.93,7.93,0,0,0-1.37,1.22,2.4,2.4,0,0,0-.52,1.3,1,1,0,0,0,0,.39,1.48,1.48,0,0,0,.67.87,1.69,1.69,0,0,1,.28.19.27.27,0,0,1,.09.17.2.2,0,0,1-.16.2c-.24.07-.48.15-.72.2L97,133l-3,.57c-.83.15-2.2.37-3,.47s-1.68.25-2.53.37c-1.17.16-2.33.35-3.5.49s-2.46.35-3.69.53-2.51.22-3.77.35l-1,.11a8.12,8.12,0,0,1-1,0,4.13,4.13,0,0,0-1,.08,3.88,3.88,0,0,1-.57.07c-.9,0-1.75.17-2.64.13H71a30.07,30.07,0,0,1-3.19.26c-.75,0-1.51,0-2.27,0-.41,0-1.08,0-1.49-.07q-1-.09-2.1-.12a14.47,14.47,0,0,1-1.69-.21l-2.36-.27h-.08c-1.64-.29-3.28-.57-4.91-.9a21.19,21.19,0,0,1-3.27-.93,18.8,18.8,0,0,1-2-.79c-.39-.19-.77-.37-1.17-.54a10.82,10.82,0,0,0-1.12-.41,5.49,5.49,0,0,1-1.59-.71,5.75,5.75,0,0,0-1.06-.55,3.22,3.22,0,0,1-1.35-1c-.21-.27-.42-.54-.62-.82-.37-.52-.28-.61-.23-1.24a4.49,4.49,0,0,1,.06-.54c0-.33-.07-.16.26-.3a.38.38,0,0,0,.17-.12,5.2,5.2,0,0,0,.71-1.07,3.2,3.2,0,0,1,.61-1,13.81,13.81,0,0,1,2.27-2.06c.37-.29.75-.57,1.14-.84a17.77,17.77,0,0,1,2.69-1.56c1-.45,2.12-.86,3.19-1.27A35,35,0,0,1,55.16,118l.45-.11a3.24,3.24,0,0,0-.13-.76c-.22-.79-.56-.22-.56-.22l.07-.16a26.78,26.78,0,0,0-3.3,1,44,44,0,0,0-4.11,1.67,19.29,19.29,0,0,0-2.65,1.65c-.48.36-.95.72-1.43,1.08a20.59,20.59,0,0,0-2.27,2,3.35,3.35,0,0,0-.68.94,8,8,0,0,0-.7,2.14,6,6,0,0,1-.25,1v0a15.61,15.61,0,0,0,.14,2.43c.06.41.16,1.09.19,1.51a6.88,6.88,0,0,0,.23,1.47c.2.71.37,1.43.58,2.13s.39,1.39.53,2.1c.3,1.47.83,2.86,1.22,4.3,0,.16.13.41.19.57a11.34,11.34,0,0,1,.57,1.54,1.85,1.85,0,0,0,.16.38.72.72,0,0,0,.13.15.2.2,0,0,0,.25,0l.2-.36a.75.75,0,0,0,0-.72c-.13-.31-.25-.62-.41-.9a6.31,6.31,0,0,1-.4-1l-.28-.84a9.16,9.16,0,0,1-.45-1.8,30.44,30.44,0,0,0-.9-4.08c-.15-.55-.28-1.11-.39-1.66a10.28,10.28,0,0,1-.29-1.74,5.26,5.26,0,0,0-.11-.67,2,2,0,0,1,0-.27.17.17,0,0,1,.07-.09.06.06,0,0,1,.06,0,6.19,6.19,0,0,1,.48.56,3.37,3.37,0,0,0,1.35,1.09A12.61,12.61,0,0,1,44,133a4.68,4.68,0,0,0,1.51.63,6.22,6.22,0,0,1,1.46.53c.57.28,1.16.54,1.75.79a20.5,20.5,0,0,0,2.31.86,32.24,32.24,0,0,0,3.66.85l.74.14c.43.08.85.18,1.27.23s1,.13,1.56.16c.71,0,1.41.06,2.12.13a11.38,11.38,0,0,0,2.37.06c.41,0,.82-.06,1.22-.09l1.43-.09,1-.07a3,3,0,0,1,.6.06c.6.12,1.2.13,1.79.22a8,8,0,0,0,1.68,0,7.88,7.88,0,0,1,.82,0,7.66,7.66,0,0,0,1.63-.1c.47-.09.95-.13,1.42-.17l1.84-.13a2.07,2.07,0,0,0,.54-.06,4.79,4.79,0,0,1,1.21-.19,3.63,3.63,0,0,0,.54-.06,9.72,9.72,0,0,1,1.83-.22,9.58,9.58,0,0,0,1.62-.26,9.85,9.85,0,0,1,1-.17l2.24-.29a1.32,1.32,0,0,0,.26-.06l.8-.14,2.09-.34c.7-.1,1.35-.22,2-.29.93-.1,1.84-.33,2.77-.36h.1c1-.27,2-.35,3.06-.56l2-.39c.49-.1,1-.21,1.49-.27.24,0,.48-.1.71-.15.51-.11,1-.22,1.53-.37,1-.29,2-.51,3-.85.67-.22,1.35-.42,2-.64l2.77-1c.39-.14.76-.31,1.16-.45a13.17,13.17,0,0,0,1.64-.67l.68-.34a8.65,8.65,0,0,0,2.75-2.21l.13-.13h.06a.16.16,0,0,1,.07.09c0,.2-.07.4-.13.6a24.11,24.11,0,0,1-.9,2.87c-.28.69-.48,1.42-.77,2.11a17.78,17.78,0,0,0-1,2.91c-.16.69-.41,1.35-.64,2a14.87,14.87,0,0,0-.59,2.12,9.17,9.17,0,0,1-.26,1.07,3.82,3.82,0,0,1-.25.76c-.23.42-.48.83-.73,1.24s-.5.76-.75,1.14a1.77,1.77,0,0,1-.78,1c-.36.27-.74.53-1.12.79s-.55.33-.81.51a13.36,13.36,0,0,1-2.19,1.24,39.1,39.1,0,0,1-4.23,1.69l-.52.19a15.37,15.37,0,0,1-2,.67c-.78.21-1.56.4-2.33.63a34.48,34.48,0,0,1-3.5.81c-.74.13-1.48.28-2.21.4-.58.1-1.16.22-1.75.28-.9.09-1.79.22-2.69.34L85,152.3l-.68.1c-.27,0-.54.1-.81.13-.45,0-.9.05-1.35.13s-1,.14-1.49.18c-.68.06-1.35.14-2,.24s-1.54.14-2.31.2c-.5,0-1,.05-1.5.1s-.76.12-1.15.16c-.75.07-1.49.13-2.24.18l-4.16.22H63.76c-.45,0-.9,0-1.35,0-.68,0-1.35-.09-2-.12a12,12,0,0,1-2-.19l-1.4-.31a2.31,2.31,0,0,0-.4,0,.18.18,0,0,0-.15.2l0,.05,0,.06a2.24,2.24,0,0,0,1.1.77,5.88,5.88,0,0,0,.66.16,5.1,5.1,0,0,1,1.17.35A1.63,1.63,0,0,0,60,155l1.58,0a4.39,4.39,0,0,1,.69,0,6.71,6.71,0,0,0,1.61,0h.2a12,12,0,0,0,1.77,0,7.66,7.66,0,0,1,.86,0,8.51,8.51,0,0,0,1.14,0L69.3,155c.68,0,1.35-.05,2-.1a20.17,20.17,0,0,0,2-.13,3.31,3.31,0,0,1,.54,0H75l3.16-.18c.45,0,1.15-.09,1.58-.16s1-.12,1.44-.17l2.69-.31.31-.06a9,9,0,0,1,1.24-.17,3.71,3.71,0,0,0,.54-.08c.32,0,.64-.12,1-.14a3.52,3.52,0,0,0,.9-.19,4.45,4.45,0,0,1,.94-.19q.54-.07,1.08-.17l.84-.18c.5-.1,1.32-.26,1.82-.38l1.14-.25c.16,0,.32,0,.45-.08,1-.24,1.93-.48,2.9-.74a11.62,11.62,0,0,0,1.59-.55l.32-.14a4.77,4.77,0,0,1,.78-.25,14.14,14.14,0,0,0,1.53-.39c1-.32,1.93-.67,2.89-1a14.44,14.44,0,0,0,3.42-1.69,6.8,6.8,0,0,0,1-.75,2.74,2.74,0,0,1,.45-.33l.58-.36a5.21,5.21,0,0,0,2-1.93,9.09,9.09,0,0,0,.5-.9,2.18,2.18,0,0,1,.68-.85.79.79,0,0,0,.28-.32,6.94,6.94,0,0,0,.35-1.16,8.07,8.07,0,0,1,1-2.7,3.75,3.75,0,0,0,.55-2,4.44,4.44,0,0,1,.31-1.29c.1-.3.21-.6.3-.9.15-.48.29-1,.45-1.44s.26-.68.38-1a28.85,28.85,0,0,0,1.15-4.91A2.34,2.34,0,0,0,117.3,125Z"/><path class="cls-9" d="M15.94,167.88a4.69,4.69,0,0,1,.1-1.76c.06-.27.13-.53.19-.8A4.86,4.86,0,0,1,17,163.6c.27-.36.51-.76.75-1.14a7.06,7.06,0,0,1,1.79-1.86,45.58,45.58,0,0,1,3.9-2.64c1.19-.71,2.37-1.44,3.57-2.15.33-.2.68-.37,1-.54l1.95-1c.32-.17.65-.34,1-.48,1.75-.78,3.42-1.7,5.08-2.65.77-.45,1.55-.86,2.33-1.3l.9-.53c.93-.57,1.91-1.06,2.87-1.58q1.92-1,3.74-2.25c1.35-.9,2.63-1.88,3.93-2.84a5.88,5.88,0,0,0,1.79-2.11.13.13,0,0,1,.14-.11.32.32,0,0,1,.14.13l.1.18a.4.4,0,0,0,.33.22c.18,0,.36,0,.54.05a5.86,5.86,0,0,1,1.47.28c.22.07.45.15.66.2a5.7,5.7,0,0,0,1,.18,13.67,13.67,0,0,1,3.22.48,9.32,9.32,0,0,0,.94.18l.34,0a1.28,1.28,0,0,1,1,.8.81.81,0,0,1,.08.33,1.32,1.32,0,0,1,0,.34,7.51,7.51,0,0,0-.06,2c.09,1.35.2,2.7.3,4v.34a.26.26,0,0,1-.22.29h-.07a.68.68,0,0,0-.38.14,3.41,3.41,0,0,1-1,.51l-1.59.61-.37.17c-.41.2-.82.4-1.22.61a40.77,40.77,0,0,0-4.54,2.64c-.45.33-.92.66-1.39,1l-2,1.35c-.45.3-.86.59-1.27.9-1,.82-2.16,1.52-3.23,2.3-.62.45-1.27.9-1.86,1.39-.22.19-.48.34-.72.51-.8.56-1.6,1.13-2.41,1.69s-1.86,1.31-2.85,1.88c-.18.1-.35.21-.54.3a8.22,8.22,0,0,0-2,1.29c-.21.18-.45.3-.67.47s-.79.45-1.12.78a9.42,9.42,0,0,1-1.07.73,9.21,9.21,0,0,1-1.13.76c-.16.09-.33.16-.48.26a7.07,7.07,0,0,0-.68.45,6.19,6.19,0,0,1-1.71,1c-.45.18-.93.37-1.41.52a8.13,8.13,0,0,1-2.69.38,9.22,9.22,0,0,1-2.8-.53l-.9-.29a5.64,5.64,0,0,1-1.89-1.06,7.1,7.1,0,0,1-1.15-1.26,2.61,2.61,0,0,1-.52-1.32A4.84,4.84,0,0,1,15.94,167.88ZM37,158.75h0a.65.65,0,0,1,.11-.17c.63-.52,1.25-1.06,1.91-1.55s1.49-1,2.24-1.56c1.11-.75,2.24-1.49,3.35-2.25.51-.34,1-.69,1.53-1Q48,151,49.77,149.76c1-.69,2-1.39,3-2,.28-.16.54-.33.81-.5l.27-.2a.18.18,0,0,0,0-.25l0,0a3.82,3.82,0,0,0-1.15-.43,11.59,11.59,0,0,1-2.52-.83,5.9,5.9,0,0,1-1.15-.59.45.45,0,0,0-.57,0l-.45.31-2.69,1.88a22.94,22.94,0,0,1-2.39,1.45c-1.22.65-2.43,1.35-3.64,2-.87.49-1.73,1-2.6,1.51-1.52.87-3,1.74-4.64,2.48-.39.18-.79.36-1.18.54-.82.4-1.63.81-2.44,1.22-.45.24-.93.48-1.38.76-1.22.75-2.41,1.55-3.65,2.28a38.37,38.37,0,0,0-3.59,2.48,6.29,6.29,0,0,0-1.31,1.29c-.5.68-1,1.39-1.42,2.09l0,.06a6,6,0,0,0-.54,2.93,1.61,1.61,0,0,0,.35.88,5.41,5.41,0,0,0,2.53,1.8c.39.13.78.25,1.17.37a5.14,5.14,0,0,0,1.88.31h.41a8.28,8.28,0,0,0,.9,0c.52-.05,1-.13,1.55-.21l.2,0c.45-.18.93-.36,1.39-.57s1.05-.54,1.62-.73a1.79,1.79,0,0,0,.3-.16l2.12-1.24c.37-.22.76-.4,1.14-.61.18-.09.37-.18.54-.3l1.7-1.14c.76-.51,1.5-1,2.3-1.47a10,10,0,0,0,.87-.54l2.74-1.92,1.58-1.08c.52-.36.94-.64,1.4-1,.79-.58,1.57-1.18,2.36-1.75L48.09,157c.75-.55,1.52-1.08,2.31-1.58a5.13,5.13,0,0,0,.83-.59,7.28,7.28,0,0,1,1.35-.94l2.1-1.28a.5.5,0,0,0,.26-.52c0-.39-.06-.77-.1-1.16-.09-.72-.18-1.45-.27-2.17a1,1,0,0,0,0-.13.26.26,0,0,0-.28-.23l-.08,0c-.17.07-.33.16-.48.25l-.78.43-.6.32A23.85,23.85,0,0,0,49.92,151a39,39,0,0,1-3.57,2.4c-.2.11-.38.25-.57.37-.49.32-1,.66-1.49,1a1.74,1.74,0,0,1-.61.27,1.58,1.58,0,0,0-.62.26,5.38,5.38,0,0,1-.7.43,5.45,5.45,0,0,0-.83.48,2.44,2.44,0,0,1-.73.36,2,2,0,0,0-.72.39,24.94,24.94,0,0,1-2.5,1.53A3.17,3.17,0,0,1,37,158.75ZM60.91,147h0c0-.68-.08-1.35-.13-2,0-.27-.1-.39-.39-.19l-.45.32a6,6,0,0,1-1.09.69c-.17.08-.32.17-.48.26-.45.26-.9.51-1.35.81s-.94.55-1.41.83-.56.33-.4,1a.49.49,0,0,0,0,.13,12.34,12.34,0,0,1,.3,1.47,4.26,4.26,0,0,1,.11,1.49.3.3,0,0,0,0,.07.18.18,0,0,0,.2.17h0l1.87-1,.67-.34,2-.9.37-.18a.45.45,0,0,0,.23-.39v-.41c0-.6-.09-1.2-.12-1.79Zm-5.68-.76c.13-.06.28-.11.42-.18.45-.24.87-.49,1.31-.73l2.14-1.19a3.26,3.26,0,0,0,.39-.27.24.24,0,0,0,.1-.16.28.28,0,0,0-.12-.14l-.13,0a7.67,7.67,0,0,0-2.27-.37,6.76,6.76,0,0,1-2.27-.41,4.92,4.92,0,0,0-1.87-.32,1.34,1.34,0,0,1-.78-.19l-.3-.17a.19.19,0,0,0-.27,0l0,0A5,5,0,0,1,50,143.83l-.16.12c-.25.2-.24.31,0,.45l.13.05a9,9,0,0,0,1.89.57,6,6,0,0,1,1.43.45,3.21,3.21,0,0,0,.52.18,3.07,3.07,0,0,1,.81.35,1.73,1.73,0,0,0,.3.16l.34.05Z"/><path class="cls-9" d="M100.17,118.86a2.89,2.89,0,0,0-.45.09.87.87,0,0,0-.76.76,1.45,1.45,0,0,1-.09.33.27.27,0,0,1-.22.23.32.32,0,0,1-.28-.17c-.11-.14-.2-.31-.31-.45a.56.56,0,0,0-.47-.23,1.15,1.15,0,0,0-.9.39.86.86,0,0,0-.24.62,4.74,4.74,0,0,1,0,.54.19.19,0,0,1-.31.11,5,5,0,0,1-.37-.49.71.71,0,0,0-.77-.31.94.94,0,0,0-.74.45.53.53,0,0,1-.35.29,1.12,1.12,0,0,0-.59.45.74.74,0,0,0-.18.5,4.42,4.42,0,0,0,0,.54.28.28,0,0,1-.16.28.32.32,0,0,1-.32-.06.66.66,0,0,1-.27-.38,3.3,3.3,0,0,1,0-1.49.45.45,0,0,1,.14-.22.7.7,0,0,1,.23-.13,2.89,2.89,0,0,0,.81-.49,1.89,1.89,0,0,1,1.61-.39l.26.06a.4.4,0,0,0,.25-.08,2.37,2.37,0,0,0,.25-.32,1.74,1.74,0,0,1,1-.6,1.43,1.43,0,0,1,.87.08c.21.08.39.3.62.23a3.14,3.14,0,0,0,.52-.31c.18-.1.37-.18.56-.26a1.41,1.41,0,0,1,.74-.07,2.77,2.77,0,0,1,1.79.9.83.83,0,0,0,.59.28,2.32,2.32,0,0,1,.65.18,1.54,1.54,0,0,1,.77.75,1,1,0,0,1,.09.8.61.61,0,0,0,.15.63,4.57,4.57,0,0,1,.45.62.62.62,0,0,1,.11.32,8.42,8.42,0,0,1-.09,1.08.65.65,0,0,1-.4.52.26.26,0,0,1-.31,0l-.2-.18a.37.37,0,0,1-.05-.63,3,3,0,0,0,.34-.59.45.45,0,0,0,0-.4.25.25,0,0,0-.27-.14l-.31.15a.2.2,0,0,1-.24-.09,1.1,1.1,0,0,1-.08-1.16,3.65,3.65,0,0,0,.25-.56.41.41,0,0,0-.15-.49.8.8,0,0,0-.57-.2.42.42,0,0,0-.39.22,3.8,3.8,0,0,1-.21.35.26.26,0,0,1-.37,0h0a.64.64,0,0,1-.2-.74,1.92,1.92,0,0,1,.13-.24.22.22,0,0,0,0-.26A1.52,1.52,0,0,0,100.17,118.86Z"/><path class="cls-9" d="M49.36,127.63a5.68,5.68,0,0,1,1.35.13,1.72,1.72,0,0,1,.45.18,4.07,4.07,0,0,1,.35.22.32.32,0,0,0,.38,0,3.39,3.39,0,0,1,.48-.26,3.91,3.91,0,0,1,1.6-.27.92.92,0,0,1,.62.23l.25.23a.92.92,0,0,1,.31.67V129c0,.19-.05.33-.16.34a.37.37,0,0,1-.33-.2,2.52,2.52,0,0,1-.18-.36.45.45,0,0,0-.43-.29,2.42,2.42,0,0,0-.95,0,5.77,5.77,0,0,1-.74.1.28.28,0,0,0-.23.3c0,.18.07.36.08.54a.59.59,0,0,1-.07.26.18.18,0,0,1-.24.05.84.84,0,0,1-.15-.14c-.13-.18-.26-.37-.38-.57a.58.58,0,0,0-.37-.27c-.15,0-.31,0-.45-.09a2,2,0,0,0-2.33,1.12,15.3,15.3,0,0,0-.94,1.58.22.22,0,0,1-.3.08.94.94,0,0,1-.42-1.26l0,0a14.91,14.91,0,0,1,.83-1.41,2.86,2.86,0,0,1,1.21-1A2,2,0,0,1,49.36,127.63Z"/><path class="cls-9" d="M77.41,130.51a.68.68,0,0,0,.61-.19,2,2,0,0,1,1.35-.45,1.08,1.08,0,0,0,.7-.22,2.82,2.82,0,0,1,1.95-.45,1.79,1.79,0,0,1,1.12.6.64.64,0,0,1,.13.58.2.2,0,0,1-.24.14h0l-.06,0a1.4,1.4,0,0,0-1.22-.3,2.37,2.37,0,0,0-.73.14.41.41,0,0,0-.27.36,1.47,1.47,0,0,1,0,.34.17.17,0,0,1-.2.12l-.07,0-.31-.27a.84.84,0,0,0-.77-.17l-.33.08a.52.52,0,0,0-.45.5,1.26,1.26,0,0,1-.1.32c-.13.34-.26.38-.53.13a.36.36,0,0,0-.45-.09,3.14,3.14,0,0,0-1.42,1.23.34.34,0,0,0-.05.25c0,.11.16,0,.24,0a.11.11,0,0,1,.12.13.29.29,0,0,1,0,.07c-.17.27-.33.54-.51.81a.21.21,0,0,1-.25,0l-.1-.09a2.22,2.22,0,0,1-.45-1.54,1.29,1.29,0,0,1,.32-.74,5.27,5.27,0,0,1,1.31-1.08A1.21,1.21,0,0,1,77.41,130.51Z"/><path class="cls-9" d="M87.88,123.34l-.41,0a1.91,1.91,0,0,0-1.09.34,5.08,5.08,0,0,1-.73.37,1.35,1.35,0,0,0-.59.64.31.31,0,0,0,0,.2,5.17,5.17,0,0,0,.34,1.25.2.2,0,0,1,0,.25.23.23,0,0,1-.26,0,.5.5,0,0,1-.22-.14,3.23,3.23,0,0,1-.49-1.68.81.81,0,0,1,.16-.45,3.68,3.68,0,0,1,2.73-1.61,4.9,4.9,0,0,1,1.43,0,1,1,0,0,1,.49.21,2.43,2.43,0,0,0,.77.42,3.3,3.3,0,0,1,1.09.68.59.59,0,0,1,.22.72,3.6,3.6,0,0,1-.67,1.77.9.9,0,0,1-.23.24.34.34,0,0,1-.49,0h0c-.42-.37-.45-.48-.15-1l.56-1a.73.73,0,0,0,.09-.26.31.31,0,0,0-.07-.18.23.23,0,0,0-.11-.07,2.43,2.43,0,0,1-.81-.5,1,1,0,0,0-.75-.26l-.75,0v0Z"/><path class="cls-9" d="M88.1,128.84a1.49,1.49,0,0,1,1.13.38.45.45,0,0,0,.45.12,1.69,1.69,0,0,1,1.46.38c.16.13.34.23.51.35a.51.51,0,0,1,.22.4.28.28,0,0,1-.14.29.39.39,0,0,1-.26,0,4.15,4.15,0,0,1-.45-.31c-.18-.13-.36-.27-.56-.39a.47.47,0,0,0-.61.15c-.08.11-.13.24-.2.36a.26.26,0,0,1-.45,0,2.52,2.52,0,0,1-.2-.36.47.47,0,0,0-.29-.27,3.7,3.7,0,0,0-.45-.14.92.92,0,0,0-1,.62,1.42,1.42,0,0,1-.17.51.2.2,0,0,1-.28,0h0l0-.05c-.25-.3-.32-.32-.61-.18a1.52,1.52,0,0,0-.74.76,4,4,0,0,1-.4.63.23.23,0,0,1-.31,0l-.1-.09a1.87,1.87,0,0,1-.27-.9,1.13,1.13,0,0,1,.31-.81,2.16,2.16,0,0,1,1.25-.77,4,4,0,0,0,1.44-.47A1.58,1.58,0,0,1,88.1,128.84Z"/><path class="cls-9" d="M62.48,125.17a1.45,1.45,0,0,1,0,.34.23.23,0,0,1-.18.18.22.22,0,0,1-.24-.08,2.91,2.91,0,0,1-.3-.53c-.11-.3-.2-.6-.29-.9s-.17-.57-.26-.85a1.25,1.25,0,0,0-.45-.6.63.63,0,0,0-.64-.12,3.67,3.67,0,0,1-.66.18,1.87,1.87,0,0,0-1.29,1,.82.82,0,0,0-.1.53,3.93,3.93,0,0,0,.09.54,5.15,5.15,0,0,1,.12,1.42,1.29,1.29,0,0,1,0,.27.28.28,0,0,1-.45.17.64.64,0,0,1-.22-.24,3.66,3.66,0,0,1-.29-1c0-.34-.12-.67-.17-1A4.15,4.15,0,0,1,57,124a1.5,1.5,0,0,1,.54-1.27,3.48,3.48,0,0,1,1.28-.75c.17,0,.35-.09.52-.16a1.31,1.31,0,0,1,1.23.15,9.56,9.56,0,0,1,.86.67.77.77,0,0,1,.17.21A6.25,6.25,0,0,1,62.48,125.17Z"/><path class="cls-9" d="M66.6,131.4a3.17,3.17,0,0,1,.85-2.31,1.66,1.66,0,0,1,.4-.36c.32-.21.65-.41,1-.59a1.3,1.3,0,0,1,1.05-.08c.3.1.61.19.9.3a2,2,0,0,1,.74.45l.45.42a.37.37,0,0,1,.08.18.17.17,0,0,1,0,.12.14.14,0,0,1-.11.05c-.32-.17-.7-.21-1-.35a4.31,4.31,0,0,0-1.06-.22,1.31,1.31,0,0,0-1,.27c-.41.32-.8.67-1.18,1a1.1,1.1,0,0,0-.32.94.62.62,0,0,0,.24.45c.17.12.34.22.51.34a.54.54,0,0,1,.19.74l0,0a1.6,1.6,0,0,1-.15.22.36.36,0,0,1-.36.13,1,1,0,0,1-.58-.32A1.75,1.75,0,0,1,66.6,131.4Z"/><path class="cls-9" d="M63.15,132.25a1.7,1.7,0,0,1-.4,1.35.33.33,0,0,1-.45,0,.75.75,0,0,1-.27-1c.11-.2.21-.4.3-.61a.41.41,0,0,0,0-.45.49.49,0,0,0-.5-.14,1.79,1.79,0,0,0-.66.33.26.26,0,0,1-.37-.05l0-.06a.83.83,0,0,1-.1-.78q.05-.13.09-.26a.23.23,0,0,0-.12-.29,1.55,1.55,0,0,0-.85-.19h-.27a.63.63,0,0,0-.52.27.9.9,0,0,1-.14.15.17.17,0,0,1-.24,0h0a1,1,0,0,1-.2-.5.41.41,0,0,1,0-.2,1.27,1.27,0,0,1,.1-.18c.24-.43.15-.56-.35-.55-.18,0-.36,0-.54,0a.45.45,0,0,1-.45-.34.9.9,0,0,1,0-.13.38.38,0,0,1,.27-.47h.09a1.65,1.65,0,0,1,.87.13,1.43,1.43,0,0,1,.9.71,1.35,1.35,0,0,0,.11.18.45.45,0,0,0,.33.22,4,4,0,0,0,.61.07,1.2,1.2,0,0,1,1,.58c.05.07.07.17.13.24a1.64,1.64,0,0,0,.25.22.3.3,0,0,0,.13.05,1.76,1.76,0,0,1,1.06.8A1.35,1.35,0,0,1,63.15,132.25Z"/><path class="cls-9" d="M51.74,131.14a.48.48,0,0,0,.48-.15,2.78,2.78,0,0,1,1.72-.74l.27,0a2.56,2.56,0,0,0,1.19-.25l.26-.09a.29.29,0,0,1,.3.1.26.26,0,0,1,0,.26,6.53,6.53,0,0,1-.6,1.06c-.17.22-.22.25-.45.11l-.11-.08a.72.72,0,0,0-.26-.07c-.13,0-.27,0-.4.05a.83.83,0,0,0-.82.6.27.27,0,0,1-.34.16,5.31,5.31,0,0,1-.52-.14,1.45,1.45,0,0,0-.81,0,.27.27,0,0,0-.21.31c0,.18.1.35.14.53a.19.19,0,0,1,0,.11h-.06a1.35,1.35,0,0,1-.51-1.07.4.4,0,0,1,.08-.26,2.35,2.35,0,0,1,.34-.33A.36.36,0,0,1,51.74,131.14Z"/><path class="cls-9" d="M84.14,133.61a1.23,1.23,0,0,1-.08.25.17.17,0,0,1-.23,0,.85.85,0,0,1-.17-.2.64.64,0,0,0-.53-.36l-.94-.14a.31.31,0,0,0-.37.22.58.58,0,0,1-.06.13.22.22,0,0,1-.39,0l-.13-.16a1.1,1.1,0,0,0-1.09-.4,2,2,0,0,0-.77.27,1,1,0,0,1-.24.13.25.25,0,0,1-.19,0,.74.74,0,0,1-.3-.65.5.5,0,0,1,.15-.29,3.22,3.22,0,0,1,.49-.37,1.08,1.08,0,0,1,.9-.1,2.62,2.62,0,0,1,.61.28.71.71,0,0,0,.65.09,2.62,2.62,0,0,1,1.54,0,2,2,0,0,1,.79.39A.93.93,0,0,1,84.14,133.61Z"/><path class="cls-9" d="M57.64,132l.37.06a.2.2,0,0,1,.11.22.79.79,0,0,0-.24.45,5.35,5.35,0,0,0,.16.52c0,.09,0,.18.07.26a.22.22,0,0,1-.15.2.26.26,0,0,1-.19,0c-.13-.13-.23-.28-.34-.42a.31.31,0,0,0-.52,0,8.58,8.58,0,0,0-.8.9.2.2,0,0,1-.34,0,1,1,0,0,1-.07-.85,1.59,1.59,0,0,1,1.26-1.12A2.53,2.53,0,0,0,57.64,132Z"/><path class="cls-9" d="M72.19,119.14a.58.58,0,0,0,0,.31,1.35,1.35,0,0,0,.35.63.79.79,0,0,1,.16-.14,1.34,1.34,0,0,1,.71-.22,2.55,2.55,0,0,0,1-.22l.19-.07a.47.47,0,0,1,.51.1,1.62,1.62,0,0,0,.26.22.21.21,0,0,0,.18,0,.24.24,0,0,0,.1-.16,1.18,1.18,0,0,0,0-.34.68.68,0,0,1,.31-.71,2,2,0,0,1,.86-.4.42.42,0,0,1,.45.15,5.15,5.15,0,0,0,.35.42.41.41,0,0,0,.57.06l0,0,.05,0c.39-.51.85-.43,1.35-.13l.36.2.25.11a.25.25,0,0,0,.25-.05.23.23,0,0,0,.06-.25A1.11,1.11,0,0,0,80,118c-.19-.13-.39-.24-.58-.36a1.66,1.66,0,0,0-1.51-.09l-.12.06a.66.66,0,0,1-.76.06.86.86,0,0,0-.67,0,2.39,2.39,0,0,0-1.18.64,1,1,0,0,1-.66.31,14.92,14.92,0,0,0-1.74.33A3,3,0,0,0,72.19,119.14Z"/><path class="cls-9" d="M81.67,120.82a2,2,0,0,0-1.67-.77,2.15,2.15,0,0,0-.61.09.87.87,0,0,0-.68.69,5.32,5.32,0,0,0-.09.54v.34c0,.22-.11.3-.3.24l-.79-.23a2.77,2.77,0,0,0-1.28-.07l-.31.07a.65.65,0,0,1,0,.14.83.83,0,0,0,.29.54l.22-.06.54,0a.79.79,0,0,1,.68.26,1.47,1.47,0,0,0,.77.41.58.58,0,0,0,.61-.19.76.76,0,0,0,.22-.62c0-.2-.07-.4-.11-.6a.55.55,0,0,1,.29-.63,1.69,1.69,0,0,1,1.39-.11,2.5,2.5,0,0,1,.68.45.14.14,0,0,0,.13,0,.18.18,0,0,0,.07-.11A.41.41,0,0,0,81.67,120.82Z"/><path class="cls-9" d="M84.54,186.47a4.26,4.26,0,0,0-.22-1.41,4.85,4.85,0,0,1-.17-1.49,6.5,6.5,0,0,0-.05-.9,2.87,2.87,0,0,1,0-.68c0-.54,0-1.1.07-1.64a.84.84,0,0,0,0-.34,3.09,3.09,0,0,1,.1-1.48,2.5,2.5,0,0,1,.63-1.2c.09-.1.17-.21.26-.31a8.63,8.63,0,0,1,1.12-1.1c1.57-1.28,3.21-2.48,4.86-3.65,1.19-.85,2.39-1.67,3.65-2.41.57-.33,1.1-.73,1.64-1.11,1.49-1,2.92-2.18,4.35-3.31.63-.49,1.29-.94,2-1.38,1.13-.73,2.27-1.44,3.41-2.15.62-.39,1.23-.78,1.87-1.13,1.09-.61,2.14-1.3,3.18-2,.55-.36,1.12-.7,1.68-1.05l1.77-1.16.45-.29,2.15-1.35c.21-.13.42-.27.62-.42.95-.71,1.94-1.35,2.93-2,.57-.38,1.12-.78,1.68-1.17s1.09-.74,1.65-1.09c.4-.26.83-.48,1.23-.73a12.46,12.46,0,0,0,1.08-.72c.9-.62,1.83-1.12,2.76-1.64l.18-.09c1-.64,2-1.2,3.08-1.76.34-.18.65-.43,1-.63a36.38,36.38,0,0,1,3.27-2c.83-.42,1.62-.9,2.42-1.41.52-.32,1-.69,1.52-1s1.18-.85,1.79-1.26a6.64,6.64,0,0,1,.66-.35,5.4,5.4,0,0,1,2.85-.53,13.81,13.81,0,0,0,1.43,0,1.79,1.79,0,0,1,.8.11.67.67,0,0,0,.33.07c.59-.06,1.18.08,1.77.07a16.33,16.33,0,0,1,1.7.13l.13,0a44,44,0,0,0,4.73,1c.31.06.63.09.94.14a6.54,6.54,0,0,1,1.25.33c.3.11.61.19.9.28a9.54,9.54,0,0,1,1.6.58,5.47,5.47,0,0,0,.83.3l2.22.68c.86.3,1.7.64,2.55,1l1,.35.13,0a33,33,0,0,0,3.54,1c.7.18,1.42.32,2.14.45s1.46.35,2.18.55c.31.09.61.18.92.25a15.86,15.86,0,0,1,1.84.5c.45.15.92.24,1.39.36.77.21,1.53.45,2.3.65.35.1.7.2,1.05.28a12.89,12.89,0,0,1,1.57.45c1.22.45,2.45.84,3.71,1.18l1.77.52.26.09,1.4.71c.06,0,.11.08.18.11a24.22,24.22,0,0,1,2.24,1.32,7,7,0,0,1,1.3,1.1c.2.19.36.41.56.6a2.34,2.34,0,0,1,.59,2.09,6.31,6.31,0,0,1-.17.81,2.61,2.61,0,0,0-.09.95,1.92,1.92,0,0,1-.1.87,2.1,2.1,0,0,0-.12.53,9.55,9.55,0,0,0-.1,1.64,2.55,2.55,0,0,1,0,.54,8.72,8.72,0,0,0-.09,1.91,2.28,2.28,0,0,1-.5,1.52c-.22.31-.48.61-.72.9a7.69,7.69,0,0,1-1.12,1.2,3.68,3.68,0,0,0-.69.76,11.28,11.28,0,0,1-1.62,1.85l-.19.19a11.55,11.55,0,0,1-1.42,1.38,2.3,2.3,0,0,0-.45.45,3.19,3.19,0,0,1-.67.67c-.31.26-.61.54-.93.81s-.74.61-1.11.9l-3.14,2.51c-.14.11-.28.23-.41.36-.92.88-1.85,1.75-2.69,2.7-.52.58-1.08,1.11-1.62,1.66a1.84,1.84,0,0,1-.26.22,12.46,12.46,0,0,0-2,1.77c-.61.65-1.26,1.26-1.87,1.9s-1.16,1.09-1.75,1.63a2.25,2.25,0,0,1-.26.22,5.87,5.87,0,0,0-1,.87c-.18.18-.36.35-.54.52-.86.9-1.87,1.6-2.77,2.44l-1.43,1.35c-.61.58-1.24,1.14-1.87,1.7l-2.53,2.29-.31.27a10.63,10.63,0,0,0-1.35,1.26c-.58.61-1.2,1.18-1.79,1.76q-.57.54-1.15,1.07-.36.32-.74.61a5,5,0,0,0-1.06,1.05,7.68,7.68,0,0,1-.81.83,1.35,1.35,0,0,0-.28.29,1.5,1.5,0,0,1-.63.6,7.74,7.74,0,0,0-.78.65c-.53.43-1.09.83-1.66,1.21a6.56,6.56,0,0,0-1.09.82,1.85,1.85,0,0,1-.45.33c-.48.26-1,.5-1.46.73s-1,.45-1.56.7l-1,.45c-.57.23-1.14.45-1.72.66l-.52.18c-.45.13-.9.25-1.31.39a18.73,18.73,0,0,1-2.05.51l-1.54.31a3.68,3.68,0,0,1-1.35.07,9.13,9.13,0,0,0-2.11-.08,5.55,5.55,0,0,1-1.35-.07c-.43-.07-.86-.1-1.29-.13a15.11,15.11,0,0,1-2.28-.45,1.66,1.66,0,0,1-.45-.17,6.79,6.79,0,0,0-1.06-.45,13.72,13.72,0,0,1-2.34-1c-.22-.13-.45-.24-.66-.35-.47-.22-.95-.45-1.42-.66s-.75-.31-1.14-.45c-.15-.06-.31-.09-.45-.15-.85-.38-1.71-.76-2.54-1.17a7.62,7.62,0,0,0-1.35-.54,6.9,6.9,0,0,1-1.39-.56c-1-.54-2.1-1-3.17-1.44l-.19-.07c-1-.56-2.06-.85-3-1.42a1.75,1.75,0,0,0-.31-.15c-1.07-.37-2.09-.9-3.18-1.23a16.93,16.93,0,0,1-1.72-.66,8.65,8.65,0,0,0-2.15-.64,6.58,6.58,0,0,1-1.89-.55,14.72,14.72,0,0,0-1.92-.72l-.39-.13a4.26,4.26,0,0,1-1.32-.7,7.44,7.44,0,0,0-1.47-.86c-.39-.18-.77-.39-1.16-.58s-.48-.25-.74-.36a16.59,16.59,0,0,1-2.43-1.24,5.17,5.17,0,0,0-1-.42c-.32-.12-.65-.22-1-.36a9,9,0,0,0-1.54-.55,3.81,3.81,0,0,1-1.07-.45,1.9,1.9,0,0,0-1-.33,2,2,0,0,1-1.41-.6c-.12-.11-.25-.2-.38-.3a3.31,3.31,0,0,1-1.2-1.8A6.8,6.8,0,0,1,84.54,186.47Zm53.6,15.89.9-.12c.29,0,.58-.1.9-.13a5.53,5.53,0,0,0,1.39-.32c1.56-.57,3.11-1.17,4.62-1.87.29-.13.57-.27.87-.4a11.23,11.23,0,0,0,1.47-.73l1.94-1.15c.59-.35,1.21-.65,1.75-1.05.9-.65,1.82-1.21,2.69-1.86,1.58-1.19,3.14-2.44,4.64-3.72.82-.69,1.6-1.42,2.4-2.14s1.43-1.27,2.09-2c.36-.38.73-.75,1.12-1.1a26.06,26.06,0,0,0,2.47-2.55c.45-.5.86-1,1.35-1.48,1.1-1.12,2.2-2.25,3.23-3.43a33.34,33.34,0,0,1,3.34-3.32c1-.84,1.87-1.74,2.79-2.62.74-.71,1.47-1.43,2.24-2.12s1.35-1.17,2-1.77l3-2.7c1-.9,2-1.86,3-2.81l2.75-2.66c.26-.25.54-.49.8-.75.62-.63,1.22-1.29,1.84-1.93.35-.36.66-.75,1-1.13a2.88,2.88,0,0,0,.62-1.35c.06-.31.16-.62.24-.92,0-.13.09-.26.12-.39a.72.72,0,0,0-.37-.94l-.11,0a8.67,8.67,0,0,1-1.35-.94,1.94,1.94,0,0,0-1-.59,1,1,0,0,1-.37-.17,8.86,8.86,0,0,0-2.36-1H190c-1-.3-1.93-.51-2.88-.86a.22.22,0,0,1-.13,0c-.22-.06-.45-.12-.65-.2a21.72,21.72,0,0,0-2.73-.86c-.38-.09-.75-.2-1.12-.32-.78-.25-1.56-.49-2.36-.68l-.73-.19a2.4,2.4,0,0,1-.9-.45.75.75,0,0,0-.45-.18,3,3,0,0,1-1.49-.42.82.82,0,0,0-.26-.09.68.68,0,0,0-.33,0,1.11,1.11,0,0,1-.67,0c-.49-.11-1-.24-1.46-.33-1-.18-2-.45-3.06-.72l-.6-.14-.9-.26a27.88,27.88,0,0,0-2.93-.9,2.46,2.46,0,0,1-.39-.13,4.34,4.34,0,0,0-.65-.22,9.73,9.73,0,0,1-1.25-.36,4.06,4.06,0,0,0-.79-.18,5.15,5.15,0,0,1-1.38-.38,13.24,13.24,0,0,0-1.35-.45c-.45-.13-.92-.23-1.39-.34s-.85-.15-1.27-.24a4,4,0,0,1-.79-.21,4.72,4.72,0,0,0-.9-.27c-.51-.11-1-.21-1.53-.35-.72-.2-1.44-.45-2.16-.64a2.37,2.37,0,0,0-.4-.09c-.5-.06-1-.12-1.49-.15a3,3,0,0,1-.86-.2,2,2,0,0,0-.59-.13,1.12,1.12,0,0,1-.69-.25.3.3,0,0,0-.32,0,4.24,4.24,0,0,1-1.66.34,2.17,2.17,0,0,0-.34,0c-.27,0-.54.1-.81.12a5.25,5.25,0,0,0-1.58.41c-.26.1-.5.22-.76.3a3.19,3.19,0,0,0-.9.45c-.35.25-.7.49-1.07.73a6.25,6.25,0,0,1-1.18.66l-.18.1a11.13,11.13,0,0,0-1.71,1.13,3.06,3.06,0,0,1-.77.45c-.38.16-.74.36-1.1.54a14,14,0,0,0-1.4,1c-.62.42-1.22.87-1.84,1.3a5.45,5.45,0,0,1-.59.35l-2,1.12c-.53.3-1.06.61-1.6.9a13.35,13.35,0,0,0-1.4.84c-.6.42-1.2.82-1.82,1.21-.79.49-1.59,1-2.34,1.52s-1.53,1.07-2.3,1.6l-.74.5-2.8,2c-.34.23-.69.45-1,.69a17.09,17.09,0,0,1-2.36,1.5l-.29.18c-.72.47-1.44,1-2.17,1.42-1.32.81-2.65,1.6-4,2.4-.72.45-1.47.82-2.19,1.26-1.26.78-2.5,1.57-3.7,2.46a3.18,3.18,0,0,1-.45.3,8.58,8.58,0,0,0-1.35.9,30.17,30.17,0,0,1-3.56,2.53c-1,.73-2.08,1.3-3.08,2s-1.89,1.26-2.78,2A5.59,5.59,0,0,1,89,175l-.11.08c-.9.69-1.79,1.33-2.62,2.08a6.36,6.36,0,0,0-1.2,1.48,3,3,0,0,0-.21.5,2.58,2.58,0,0,0,0,1.29,1.12,1.12,0,0,0,.39.7,4.42,4.42,0,0,0,.55.4L88,182.89a8.31,8.31,0,0,0,1.65.81c1.22.45,2.42.94,3.59,1.46a14.28,14.28,0,0,1,1.71.85,10.28,10.28,0,0,0,1.79.83,17.06,17.06,0,0,1,1.64.67,22.93,22.93,0,0,0,3,1.19,15.41,15.41,0,0,1,1.65.65l1.79.82c.59.28,1.23.58,1.85.9a12.35,12.35,0,0,0,1.79.81,4.74,4.74,0,0,1,.7.28c1,.5,2,1,3.08,1.48l.24.13a7.9,7.9,0,0,0,1.3.59q1,.35,1.91.74c.9.37,1.75.78,2.62,1.15,1.11.48,2.24.93,3.33,1.41a14.27,14.27,0,0,0,2.64.9,11,11,0,0,1,2.07.7c.31.14.63.25,1,.37a16.9,16.9,0,0,1,2.52,1,4.67,4.67,0,0,0,.82.35c.67.22,1.35.45,2,.65a3.14,3.14,0,0,0,.53.13c1.26.16,2.51.45,3.78.53a10.81,10.81,0,0,0,1.18,0ZM85.58,187.47c0,.29.05.59.09.9a.59.59,0,0,0,.12.31,2.53,2.53,0,0,0,1.19.87,4.36,4.36,0,0,1,1.3.6,5.2,5.2,0,0,0,1.31.58,6.12,6.12,0,0,1,1.19.5,4.5,4.5,0,0,0,1.26.51,2.69,2.69,0,0,1,1.11.51,5.46,5.46,0,0,0,1.38.74,17.45,17.45,0,0,1,1.74.8,9.2,9.2,0,0,0,.93.42,6.51,6.51,0,0,1,1.4.71,6.2,6.2,0,0,0,1.66.78c.8.27,1.6.53,2.37.86a8.24,8.24,0,0,0,1.57.45,12.21,12.21,0,0,1,1.39.36c.58.19,1.15.45,1.72.65a5.3,5.3,0,0,0,.77.27,5.49,5.49,0,0,1,1,.34l2.32,1c.21.09.41.2.61.3l1.53.76c.2.1.42.18.61.3,1,.55,2,1,3.08,1.48.31.14.62.28.92.45a7.4,7.4,0,0,0,1.58.63,4.06,4.06,0,0,1,1,.41c.86.48,1.79.82,2.67,1.23a4,4,0,0,0,.51.19,6,6,0,0,1,1.07.45,13.5,13.5,0,0,0,1.24.57,9.81,9.81,0,0,1,1,.51c.24.13.47.27.72.39s.75.34,1.13.49a17.71,17.71,0,0,0,2.13.73c1,.26,2.07.31,3.1.5a2.28,2.28,0,0,0,.41,0h2a4.13,4.13,0,0,1,.54,0,5.07,5.07,0,0,0,1.7,0c.83-.16,1.66-.23,2.49-.45,1-.23,1.93-.54,2.88-.85,1.55-.52,3-1.23,4.54-1.89.5-.22,1-.48,1.46-.74a9.72,9.72,0,0,0,.9-.59c.35-.25.7-.51,1-.78s.53-.45.78-.67a17.38,17.38,0,0,1,2.14-1.8,3.06,3.06,0,0,0,.79-.75,4.33,4.33,0,0,1,.82-.82c.32-.26.64-.52.94-.79a15.77,15.77,0,0,1,1.26-1.05,8.79,8.79,0,0,0,.84-.69c1-.93,2-1.76,3.06-2.62.63-.52,1.28-1,1.91-1.55s1.31-1.13,2-1.71l1.45-1.35a13.7,13.7,0,0,1,1.28-1.13,15.27,15.27,0,0,0,2-1.8c.75-.79,1.53-1.56,2.36-2.28a36.24,36.24,0,0,0,2.76-2.65,15.37,15.37,0,0,1,1.32-1.29,29.4,29.4,0,0,0,2.93-2.86c.74-.83,1.52-1.64,2.3-2.43a5.35,5.35,0,0,1,.45-.41l2.14-1.7c.75-.6,1.5-1.18,2.24-1.8.4-.33.76-.72,1.15-1.07.85-.79,1.7-1.59,2.56-2.37a10,10,0,0,0,1.27-1.43,9.44,9.44,0,0,1,.95-1.08,13.54,13.54,0,0,0,1.49-1.6c.11-.14.25-.27.35-.42a.81.81,0,0,0-.08-.52,2.5,2.5,0,0,1,0-.34,2.93,2.93,0,0,0,.07-.36,14.38,14.38,0,0,1,.14-2.52c0-.45,0-.87.07-1.3A8.32,8.32,0,0,1,196,157a.28.28,0,0,0,0-.13.06.06,0,0,0,0,0,.28.28,0,0,0-.11.07,10.3,10.3,0,0,1-.83,1.08c-.6.6-1.14,1.25-1.71,1.86-.17.18-.34.37-.52.54l-2,1.93c-.69.65-1.4,1.35-2.11,2-1.09,1-2.21,2-3.3,3.08s-2.13,1.92-3.22,2.86c-.79.68-1.55,1.4-2.32,2.11a9.59,9.59,0,0,1-1.66,1.41,1.23,1.23,0,0,0-.21.18c-.23.22-.48.43-.7.65a15.45,15.45,0,0,0-1.86,1.89.84.84,0,0,1-.14.14l-1,.86a4.59,4.59,0,0,0-.38.39l-1.61,1.84a2.33,2.33,0,0,1-.66.58,1.35,1.35,0,0,0-.31.27c-.53.54-1.05,1.07-1.57,1.61a8.9,8.9,0,0,1-1,.87,5.6,5.6,0,0,0-1.35,1.44,2.27,2.27,0,0,1-.45.51,29.1,29.1,0,0,0-2.34,2.19,9.92,9.92,0,0,1-1.73,1.55,3.37,3.37,0,0,0-.37.31c-.57.52-1.14,1.06-1.72,1.56-1.12,1-2.28,1.89-3.42,2.83a6.17,6.17,0,0,0-.75.69,5,5,0,0,1-1,.9,5.45,5.45,0,0,0-.9.73,3.74,3.74,0,0,1-.63.51c-.79.5-1.51,1.1-2.32,1.57a3,3,0,0,0-.49.37,6.35,6.35,0,0,1-1.57.94l-1,.5c-.26.13-.52.29-.79.41l-3.5,1.53c-.21.09-.42.17-.62.27a11.14,11.14,0,0,1-3.85,1.1,3.56,3.56,0,0,0-.61.09,9.91,9.91,0,0,1-3.46,0l-.81-.12a14.22,14.22,0,0,1-3.06-.66c-.23-.09-.47-.17-.71-.23a8.35,8.35,0,0,1-1.63-.68c-.26-.14-.53-.26-.8-.37-.69-.29-1.38-.59-2.08-.87a11.42,11.42,0,0,0-1.54-.55,20.16,20.16,0,0,1-4-1.44l-.57-.25a12.15,12.15,0,0,0-1.46-.58,20.24,20.24,0,0,1-2.78-1.13c-.56-.26-1.13-.49-1.7-.7a13.85,13.85,0,0,1-1.88-.82c-.42-.23-.86-.42-1.29-.63s-.74-.34-1.11-.53a13.44,13.44,0,0,0-1.79-.8,9.38,9.38,0,0,1-1.91-.9c-.21-.13-.45-.25-.66-.36a11.13,11.13,0,0,1-1.84-1l-.06,0a17.92,17.92,0,0,0-2.5-1.1,27.91,27.91,0,0,1-3.11-1.23,15.28,15.28,0,0,0-1.44-.61,12.1,12.1,0,0,1-2.46-1.17,21.19,21.19,0,0,0-2.87-1.27l-.2-.06a11,11,0,0,1-2.75-1c-.4-.21-.79-.45-1.2-.65-.69-.35-1.35-.76-2-1.15A1,1,0,0,0,85,182c-.21.22-.06.47-.05.71a8.5,8.5,0,0,0,.11.9,5.74,5.74,0,0,1,.09.68,10,10,0,0,0,.31,2A5.12,5.12,0,0,1,85.58,187.47Z"/><path class="cls-9" d="M168.31,90.32a8.21,8.21,0,0,1,.23-2.43,2.13,2.13,0,0,0,.18-.93c.17-.31.22-.69.58-.9a2.59,2.59,0,0,1,.69-.29,18.14,18.14,0,0,1,1.79-.45,1.16,1.16,0,0,0,.33-.09c.67-.29,1.38-.45,2.06-.71a2.73,2.73,0,0,0,.93-.56,8.1,8.1,0,0,0,1.31-1.74,4.77,4.77,0,0,0,.3-.54.42.42,0,0,0-.11-.55l-.11-.09a3.41,3.41,0,0,1-1.09-1,.9.9,0,0,0-.45-.32c-.57-.22-1.15-.45-1.73-.64a1.38,1.38,0,0,0-.45,0,8.06,8.06,0,0,1-1.35,0,.9.9,0,0,0-.27,0,2.69,2.69,0,0,1-1.53-.17,3.9,3.9,0,0,0-.92-.24,6.62,6.62,0,0,1-1.11-.32.9.9,0,0,1-.56-.56.29.29,0,0,1,.24-.45,3.35,3.35,0,0,1,1,0c.29,0,.58.09.88.15a8,8,0,0,0,1.42.19,3,3,0,0,1,.47.06,6.27,6.27,0,0,0,1.22.13,3.3,3.3,0,0,1,.81.12,10.55,10.55,0,0,1,1.68.58,2.19,2.19,0,0,1,.9.7,4.25,4.25,0,0,0,.82.81,2.9,2.9,0,0,1,.74.79,3,3,0,0,1,.39,1.78,3.9,3.9,0,0,1-.08.54.83.83,0,0,1-.12.31,3.67,3.67,0,0,1-.9.94l-.75.47-.18.1a4.23,4.23,0,0,1-1.3.73c-.29.13-.57.27-.87.41s-.41.19-.63.27a.62.62,0,0,1-.33,0,.92.92,0,0,0-.72.1,1.55,1.55,0,0,1-.79.16,1.34,1.34,0,0,0-.9.25c-.18.14-.45.1-.6.3v.61c0,.36-.05.73-.09,1.09a15.12,15.12,0,0,0-.08,2.32,2.93,2.93,0,0,1-.12,1,5.38,5.38,0,0,0-.19,1.28,8.69,8.69,0,0,1-.32,2.23c-.54,10.19-1,5-2,15.51-.05.64-.1,1.26-.15,1.86-.34,4.22-.52,7.49-.51,7.84a2.53,2.53,0,0,1-.83,1.67,18.75,18.75,0,0,0-1.89,2.49,19.42,19.42,0,0,1-2,1.29,27.22,27.22,0,0,1-2.75,1.38l-3.21,1.35a29.77,29.77,0,0,1-3.56,1.19c-1,.28-2,.56-3,.81s-2.21.52-3.32.77a2,2,0,0,1-.61,0,2.24,2.24,0,0,0-.81.06l-.2,0c-1,.05-2,.27-3,.36l-.27,0a10.89,10.89,0,0,1-2.1.23c-1.18.07-2.36.18-3.54.2a25.14,25.14,0,0,1-3.41-.12l-.9-.09a2,2,0,0,0-.68,0,8.23,8.23,0,0,1-2,.15c-.13,0-.27,0-.41,0a6.27,6.27,0,0,1-1.42-.13,10.17,10.17,0,0,0-1.63-.12c-.86,0-1.73,0-2.59-.08a1.44,1.44,0,0,1-.45-.07c-.45-.18-1-.3-1.43-.45a.18.18,0,0,1,0-.11.07.07,0,0,1,0,0l.13-.05a6.17,6.17,0,0,1,1.35-.07,7.91,7.91,0,0,0,1,0,26.28,26.28,0,0,1,2.73,0c.64,0,1.27.07,1.91.09a11.19,11.19,0,0,0,1.16,0,18.09,18.09,0,0,1,2.8,0c.5,0,1,0,1.5.06.68,0,1.35,0,2,0,1.84,0,3.69-.13,5.52-.35.92-.11,1.85-.2,2.77-.38.56-.11,1.12-.17,1.68-.27.83-.16,1.65-.33,2.46-.56s1.76-.45,2.64-.7,1.53-.45,2.3-.65a30.15,30.15,0,0,0,3.65-1.35c.81-.35,1.64-.68,2.46-1a8.84,8.84,0,0,0,1.17-.57c.87-.5,1.71-1,2.55-1.59a43.91,43.91,0,0,0,3-3.43s.3-4.5.79-9.93c.1-1.09.2-2.22.32-3.39,1.74-8.94.75-2.76,2.11-11.65,0-.63.07-1.27.1-1.91,0-.34,0-.68,0-1a5,5,0,0,1,.15-1.43A3.3,3.3,0,0,0,168.31,90.32Z"/><path class="cls-9" d="M99.21,97.57c-.45,9.45.38,3.68.48,12.92-.07.18-.15.36-.23.53a3,3,0,0,1-.29.49.19.19,0,0,1-.27,0l0,0a.9.9,0,0,1-.11-.23,6.76,6.76,0,0,1-.18-.95c.05-9.18-.77-3.29-.62-13.13l-.06-.87-.08-.86a2.07,2.07,0,0,1,.05-.7.26.26,0,0,1,.29-.22l.06,0a.85.85,0,0,1,.66.67c.09.45.19.9.26,1.33S99.19,97.23,99.21,97.57Z"/><path class="cls-9" d="M169.05,79.67a5.78,5.78,0,0,1,2.62.69,1.35,1.35,0,0,1,.52.45c.12.16.25.33.35.5a1.64,1.64,0,0,1,.17.37.57.57,0,0,1-.18.79l-.07,0c-.11.09-.21.17-.33.25a2.19,2.19,0,0,0-.61.63.9.9,0,0,1-.42.34c-.38.16-.75.32-1.14.45a1.47,1.47,0,0,1-.87.11,1.79,1.79,0,0,0-.6.09.34.34,0,0,1-.4-.26v0a.6.6,0,0,1,0-.2,3.53,3.53,0,0,0-.19-1.41,5.86,5.86,0,0,1-.14-1.15.2.2,0,0,1,.09-.16.3.3,0,0,1,.19,0,.23.23,0,0,1,.11.08,2.51,2.51,0,0,1,.5.9l.22.86a.2.2,0,0,0,.24.15h0a4.38,4.38,0,0,0,1.17-.54,3.35,3.35,0,0,1,.6-.32,5.75,5.75,0,0,0,1-.64.27.27,0,0,0,.05-.37,1,1,0,0,0-.49-.45l-.63-.27a1.51,1.51,0,0,0-.66-.13,4.73,4.73,0,0,1-1.47-.28.45.45,0,0,1-.22-.15.57.57,0,0,1-.08-.25c0-.07.09-.13.21-.12Z"/><path class="cls-9" d="M150.81,72.76l.34,0c1.24.13,2.48.25,3.72.4a23.38,23.38,0,0,1,3.28.58c.5.13,1,.22,1.53.32a28.85,28.85,0,0,1,4.14,1.11,2.82,2.82,0,0,1,.38.15.39.39,0,0,1,.16.52h0a.27.27,0,0,1-.32.22h0a5.74,5.74,0,0,1-.58-.19,13.4,13.4,0,0,0-2.09-.61,6.57,6.57,0,0,1-.9-.26,20.52,20.52,0,0,0-3.47-1c-.9-.19-1.84-.27-2.76-.4s-1.76-.64-2.64-.72l-.95-.1c-.11,0-1.28-.82-.32-.09l-.13-.14c0-.08-1.45-.56-1.39-.58C149,72,150.65,72.81,150.81,72.76Z"/><path class="cls-9" d="M148.9,169a3.37,3.37,0,0,1,.45,0c2.78-2.13,4.3-4.66,6.47-7l.47-.54.48-.56.27-.33q.39-.49.75-1a20.07,20.07,0,0,1,1.43-1.75c.31-.36.64-.72,1-1.07a18.35,18.35,0,0,0,1.17-1.43,17.85,17.85,0,0,1,1.85-2.11l.3-.28,2-2a2.42,2.42,0,0,1,.65-.49.21.21,0,0,1,.18,0,.24.24,0,0,1,.07.18,1.42,1.42,0,0,1-.35.87c-.63.77-1.24,1.57-1.92,2.32-.17.18-.32.38-.49.57a4.53,4.53,0,0,0-.7,1,3.74,3.74,0,0,1-.55.78c-.31.36-.63.72-1,1.06a13.29,13.29,0,0,0-1,1.23l-.49.65-.61.82c-.08.11-.16.22-.25.32a9.92,9.92,0,0,0-.94.93q-.22.24-.42.5c-2.53,3.65-5.56,6.7-8,10.07l-.35.53a24,24,0,0,1-1.94,2.46,17.43,17.43,0,0,0-1.49,2c-.65,1-1.28,1.94-1.92,2.91l-.79,1.2a.35.35,0,0,0-.06.12,3.07,3.07,0,0,1-.57,1.08l-.8,1.33c-.12.19-.24.39-.36.58a8,8,0,0,0-.84,1.41,3.44,3.44,0,0,1-.4.63c-.61.85-1.21,1.71-1.84,2.55-.33.45-.71.83-1.07,1.24a1,1,0,0,1-.22.17l-1.15.74a1.54,1.54,0,0,1-.31.13.53.53,0,0,1-.4,0l-.31-.15a8.16,8.16,0,0,0-1.29-.63.39.39,0,0,1-.21-.17,1,1,0,0,0-.45-.41l-.53-.31a2.75,2.75,0,0,1-1.07-1,.86.86,0,0,0-.18-.28,2.48,2.48,0,0,1-.66-1.39.65.65,0,0,1,0-.2,7,7,0,0,1,.35-2.42,24,24,0,0,1,1.48-3.08,9,9,0,0,1,.7-1,21.05,21.05,0,0,1,2.4-2.53c.2-.19.45-.34.65-.51a9.55,9.55,0,0,0,1.17-1,4.42,4.42,0,0,1,1-.84,11,11,0,0,0,1.87-1.35,4.7,4.7,0,0,1,.38-.29,8.59,8.59,0,0,0,1.12-1,8.09,8.09,0,0,1,.6-.56,20,20,0,0,1,1.92-1.63,1.22,1.22,0,0,0,.45-.51.13.13,0,0,0,0-.12c-.36-.18-.72-.37-1.09-.54a1.2,1.2,0,0,1-.45-.32.24.24,0,0,1,0-.26,1,1,0,0,1,.09-.18,18.56,18.56,0,0,1,1.1-1.57c.54-.65,1-1.35,1.54-2a13.36,13.36,0,0,1,1.59-1.8,4.7,4.7,0,0,0,.45-.45,12.84,12.84,0,0,1,1.58-1.51l1.39-1.21c.66-.57,1.31-1.13,2-1.68.42-.35.87-.67,1.31-1,1.26-.9,2.57-1.73,3.89-2.54l2.29-1.35c.94-.55,1.91-1.06,2.88-1.57a2.84,2.84,0,0,1,.5-.21.45.45,0,0,1,.55.29.33.33,0,0,1-.11.42l-.12.07-2.61,1.35c-1,.55-2,1.11-3,1.75-.57.38-1.15.74-1.73,1.1a29.87,29.87,0,0,0-4.35,3.29c-.29.26-.57.53-.86.79l-1.2,1a17,17,0,0,0-1.28,1.23c-.39.41-.8.81-1.22,1.19a7.4,7.4,0,0,0-.92,1,6.56,6.56,0,0,1-.42.54,23.17,23.17,0,0,0-2.14,2.91.78.78,0,0,0-.05.13.14.14,0,0,0,.08.17,4.27,4.27,0,0,0,1.35.16,1.38,1.38,0,0,1,.4,0,14.44,14.44,0,0,0,2.84.3h.2v0ZM131.8,186.61A5.45,5.45,0,0,0,132,188a1,1,0,0,0,.45.66c.29.18.58.36.9.53.68.36.83.34,1.35-.22l1.71-1.87a7.3,7.3,0,0,0,1-1.35c.18-.32.38-.62.57-.93l1.27-2c.42-.67.87-1.35,1.35-2s1-1.44,1.57-2.15,1.18-1.62,1.83-2.38c1-1.21,2.07-2.42,3-3.68.56-.72,1.11-1.44,1.65-2.18.37-.51.27-.51-.26-.59a1.19,1.19,0,0,0-.27,0,6.08,6.08,0,0,1-1.42-.13c-.31-.05-.63-.08-.95-.11a.22.22,0,0,0-.23.12,3,3,0,0,1-1.09,1.18,17.22,17.22,0,0,0-2.22,1.92,6.32,6.32,0,0,1-.6.55,6.21,6.21,0,0,0-.95.9,2.09,2.09,0,0,1-.41.36c-.39.28-.77.56-1.17.82a3.39,3.39,0,0,0-.81.72,4.33,4.33,0,0,1-.66.69,14.47,14.47,0,0,0-1.83,1.73,3.19,3.19,0,0,1-.35.33,5.8,5.8,0,0,0-1.4,1.66,5.57,5.57,0,0,1-.82,1.12,2.56,2.56,0,0,0-.51.81c-.2.49-.39,1-.59,1.46A5.83,5.83,0,0,0,131.8,186.61Zm17.15-14.71v-.11l-.11,0-.27.31-1.59,2c-.9,1.11-1.79,2.22-2.71,3.34q-.66.82-1.29,1.68-1,1.35-1.94,2.73-.66,1-1.29,1.93c-.68,1.05-1.35,2.12-2,3.18a8,8,0,0,1-1.42,1.66c-.43.38-.8.81-1.19,1.21a.75.75,0,0,0-.14.23.14.14,0,0,0,0,.12.31.31,0,0,0,.38,0c.21-.13.41-.29.63-.41a2.51,2.51,0,0,0,.66-.58,21.13,21.13,0,0,0,1.4-1.76,29,29,0,0,0,1.71-2.56c.54-1,1.18-1.84,1.73-2.78a10.25,10.25,0,0,1,.63-.9c.37-.52.76-1,1.12-1.55.56-.81,1.07-1.64,1.71-2.39a4.62,4.62,0,0,0,.35-.51,19.1,19.1,0,0,1,2.15-2.91A12.49,12.49,0,0,0,148.95,171.9Z"/><path class="cls-9" d="M127.49,157.25a4.47,4.47,0,0,1,.23-1.75.75.75,0,0,1,.4-.45,8.93,8.93,0,0,1,1.35-.5c.63-.19,1.28-.31,1.92-.45a1,1,0,0,1,1,.19,2,2,0,0,0,.4.25,2.54,2.54,0,0,1,1.12,1,.17.17,0,0,0,.24.06l.56-.26a1.29,1.29,0,0,1,.8-.07c.31.07.63.11.94.17a1.88,1.88,0,0,1,.33.08,4.48,4.48,0,0,0,1.13.25,3.63,3.63,0,0,1,1.5.63.75.75,0,0,1,.18.2.38.38,0,0,1,.07.32.55.55,0,0,1-.07.19.63.63,0,0,0,0,.76.61.61,0,0,1,.08.26,7.64,7.64,0,0,1,.07,2c0,.13,0,.27-.06.4a.69.69,0,0,1-.14.31,3.34,3.34,0,0,1-.71.64,1.86,1.86,0,0,1-.36.18c-.31.09-.61.17-.92.25a.42.42,0,0,1-.39-.07.14.14,0,0,0-.18,0l-.05,0a1,1,0,0,1-.85.34.71.71,0,0,0-.57.15.63.63,0,0,1-.45.15,4,4,0,0,1-1.15-.1,3.94,3.94,0,0,1-1.4-.82,3.15,3.15,0,0,1-.8-2.4.81.81,0,0,0-.09-.59.26.26,0,0,1,0-.26,3.43,3.43,0,0,1,.9-1.26l.2-.18c.34-.33.34-.35,0-.72a.2.2,0,0,0-.24-.08l-1.35.5a.54.54,0,0,0-.32.34,1.22,1.22,0,0,0-.09.6,2.12,2.12,0,0,1,0,.27.4.4,0,0,1-.48.45.27.27,0,0,1-.26-.19c-.08-.24-.13-.48-.2-.72a4.16,4.16,0,0,0-.22-.64.65.65,0,0,0-.84-.21.29.29,0,0,0-.13.22l-.18,1.08a.7.7,0,0,0,.45.82c.36.13.74.24,1.1.37a4.48,4.48,0,0,1,.5.22.22.22,0,0,1,0,.3.48.48,0,0,1-.35.19,1.43,1.43,0,0,1-.34,0l-.67-.12a2,2,0,0,1-.93-.4,1.21,1.21,0,0,1-.49-.72c-.06-.27-.14-.53-.2-.8A2.8,2.8,0,0,1,127.49,157.25Zm11.42,1.5a2.78,2.78,0,0,0,0-.54.27.27,0,0,0-.45-.24,1.93,1.93,0,0,0-.45.31,6,6,0,0,0-.45.49.9.9,0,0,1-.57.35.55.55,0,0,0-.39.25l-.12.17a.4.4,0,0,1-.45.13,3.31,3.31,0,0,1-.92-.22,3.83,3.83,0,0,0-1-.24l-.06,0a3,3,0,0,0-1.25-.29.17.17,0,0,0-.2.2,4.75,4.75,0,0,1,.14,1.15,4.14,4.14,0,0,0,.07.54.78.78,0,0,0,.49.61,3.86,3.86,0,0,0,1.61.22,6.18,6.18,0,0,0,.94-.15.3.3,0,0,0,.29-.38,1.87,1.87,0,0,1,.07-.87.28.28,0,0,1,.45-.14.68.68,0,0,1,.32.7.84.84,0,0,0,.09.53.14.14,0,0,0,.18.1l0,0,.76-.45a2.3,2.3,0,0,0,.57-.48,1.27,1.27,0,0,0,.3-.6A3.13,3.13,0,0,0,138.91,158.75Zm-3.65-2.86a1,1,0,0,0-.53.17,2.38,2.38,0,0,0-.41.35,9.57,9.57,0,0,1-.94.9c-.09.08-.18.14-.26.22a.61.61,0,0,0-.1.17.3.3,0,0,0,.08.41l.08,0a16.67,16.67,0,0,0,2.22.63l.45.09a.49.49,0,0,0,.57-.27,4.73,4.73,0,0,1,1-1.29,4.08,4.08,0,0,0,.35-.42c.13-.17.09-.31-.11-.36a5.23,5.23,0,0,1-1-.3,6.35,6.35,0,0,0-1.25-.31Zm-4.94,0a4.29,4.29,0,0,0,1.4-.45.68.68,0,0,0,.22-.25.21.21,0,0,0-.14-.26h-.14l-1.51.38a1.26,1.26,0,0,0-.3.16.19.19,0,0,0,0,.25.61.61,0,0,0,.22.15,1.18,1.18,0,0,0,.27,0Z"/><path class="cls-9" d="M124,164.32a10.12,10.12,0,0,1,0-1.49.12.12,0,0,0,0-.07.54.54,0,0,1,.2-.74h0a3.14,3.14,0,0,1,1-.9c.28-.19.57-.37.86-.55a1.09,1.09,0,0,1,1-.21.49.49,0,0,0,.2,0,3.69,3.69,0,0,1,1.66.34c.3.1.6.23.9.31a1.8,1.8,0,0,1,1.18,1.14,2.2,2.2,0,0,1,.22.93.94.94,0,0,0,0,.27,14.51,14.51,0,0,1,.3,1.61c0,.22.06.45.12.67a1.41,1.41,0,0,1-.28,1.22,4.61,4.61,0,0,1-.9,1,6,6,0,0,0-.48.49,2.09,2.09,0,0,1-1,.53,1.34,1.34,0,0,1-.61,0l-1.2-.27a1.72,1.72,0,0,1-1-.59,1.48,1.48,0,0,0-.66-.45,1.71,1.71,0,0,1-.83-.68c-.13-.19-.25-.38-.36-.58a2.15,2.15,0,0,1-.27-1C124,165,124,164.67,124,164.32Zm4.28,3.78.37-.1a2.14,2.14,0,0,0,.66-.48,5.45,5.45,0,0,1,1.09-.82l.4-.25a.45.45,0,0,0,.22-.58,9.69,9.69,0,0,1-.26-1.06,22.21,22.21,0,0,0-.5-2.25,1.44,1.44,0,0,0-1-1.07c-.35-.12-.7-.21-1-.35a1.45,1.45,0,0,0-1.42.19l-.05,0c-.36.24-.72.48-1.07.73a2.91,2.91,0,0,0-.41.36.4.4,0,0,0,0,.56l.09.1a3.57,3.57,0,0,1,.73.9,1.06,1.06,0,0,0,.39.37.41.41,0,0,0,.51,0,7.94,7.94,0,0,1,1.41-.82,1.79,1.79,0,0,1,.7-.24.16.16,0,0,1,.12.06.19.19,0,0,1,0,.13.23.23,0,0,1-.05.12,4.69,4.69,0,0,1-.79.76,2.76,2.76,0,0,0-.47.39,1.82,1.82,0,0,1-1.3.5.49.49,0,0,1-.38-.12l-.74-.7a.28.28,0,0,0-.11-.08.13.13,0,0,0-.11,0,3.48,3.48,0,0,0-.14.52,1.83,1.83,0,0,1-.11.6.79.79,0,0,0,.06.78,1.27,1.27,0,0,0,.8.7,1.79,1.79,0,0,1,.8.5,1.28,1.28,0,0,0,.31.26,4.79,4.79,0,0,0,1.27.32Z"/><path class="cls-9" d="M136.82,163a2.57,2.57,0,0,1,.5,0,9.47,9.47,0,0,0,1.28.19,3.72,3.72,0,0,1,.92.22c.23.09.48.14.71.22a.36.36,0,0,1,.22.38,2.56,2.56,0,0,1-.36.95l-.6.9a2.46,2.46,0,0,1-.49.56c-.16.13-.31.27-.45.4a.29.29,0,0,0-.1.31,2.8,2.8,0,0,1,.09,1.08.22.22,0,0,0,.33.2l.36-.18c.26-.15.5-.31.76-.45a2.14,2.14,0,0,1,.38-.15.22.22,0,0,1,.24.25.8.8,0,0,1-.11.25,3.82,3.82,0,0,1-1,.89,1.76,1.76,0,0,0-.53.52,1.58,1.58,0,0,1-.8.62,2.39,2.39,0,0,1-1.6.13,6.33,6.33,0,0,1-1.09-.39c-.48-.25-1-.45-1.48-.7a1.93,1.93,0,0,1-.93-1,6,6,0,0,1-.33-1.18c-.05-.27-.1-.56.25-.69a25.18,25.18,0,0,0,1.67-2.07,2.48,2.48,0,0,1,.15-.22A2.41,2.41,0,0,1,136.82,163Zm-.35,4,1.2-.23a.45.45,0,0,0,.18-.09,2.5,2.5,0,0,0,.45-.41c.29-.41.55-.84.82-1.26.3-.84.34-.9-.54-1.14a1.59,1.59,0,0,0-.47-.05,3.42,3.42,0,0,1-1.14-.15.74.74,0,0,0-.59.08,1.8,1.8,0,0,0-.63.51,3.57,3.57,0,0,0-.3.45,4.25,4.25,0,0,1-1.18,1.39l-.19.19a.17.17,0,0,0,.06.23h0l.06,0a9.4,9.4,0,0,1,1.35.31,7.16,7.16,0,0,0,.92.14Zm.45,2.46h.2c.45-.08.48-.21.35-.55a3.51,3.51,0,0,1-.16-.87.31.31,0,0,0-.32-.31h-.33a2.14,2.14,0,0,1-.94-.11,5,5,0,0,0-.53-.15,4.83,4.83,0,0,0-.6-.12,2.84,2.84,0,0,0-.48,0,.19.19,0,0,0-.16.19c0,.13.06.27.08.4a.9.9,0,0,0,.4.61,3.65,3.65,0,0,0,.85.42,5.6,5.6,0,0,1,.69.28,1.61,1.61,0,0,0,.92.21Z"/><path class="cls-9" d="M133.31,148.69c0-.18-.06-.36-.1-.53a.68.68,0,0,1,.16-.63,16.1,16.1,0,0,0,1.11-1.55,1.79,1.79,0,0,1,1.76-.82c.36,0,.72.05,1.09.1a2.06,2.06,0,0,0,.81,0,3.36,3.36,0,0,1,1.41,0,4.75,4.75,0,0,1,.72.19.72.72,0,0,1,.45.39,5.28,5.28,0,0,1,.52,1.35c0,.29.18.57.25.85a.5.5,0,0,1-.33.63h0a.26.26,0,0,1-.36-.1l0-.06a10.18,10.18,0,0,0-.52-1.41,2.17,2.17,0,0,0-.19-.36.25.25,0,0,0-.35,0h0l-.18.21c-.15.2-.28.41-.45.61a2.24,2.24,0,0,1-1.08.8c-.35.11-.68.27-1,.4a1.68,1.68,0,0,1-1,.09,2.08,2.08,0,0,0-1.2.14.51.51,0,0,0-.34.45,1.32,1.32,0,0,0,.12.67l.28.62a.37.37,0,0,1-.08.45.38.38,0,0,1-.45.08.45.45,0,0,1-.23-.22,4.17,4.17,0,0,0-.37-.73A2.94,2.94,0,0,1,133.31,148.69Zm2.5-.7a11.17,11.17,0,0,0,1.11-.31,2.75,2.75,0,0,0,1.31-1.23.22.22,0,0,0-.09-.29,2.91,2.91,0,0,0-.53-.11c-.29,0-.59,0-.9,0a.71.71,0,0,0-.49.18,4.54,4.54,0,0,0-1,1.17.32.32,0,0,0,.12.44h0a4.13,4.13,0,0,0,.47.16Z"/><path class="cls-9" d="M117.17,180.12a4.12,4.12,0,0,1-.28,1.17.93.93,0,0,1-.83.5.29.29,0,0,1-.13,0,1,1,0,0,0-.94.27l-.84.58-.18.11a1.25,1.25,0,0,1-1.73-.42l0-.07L112,182a1.47,1.47,0,0,0-.82-.69.38.38,0,0,0-.45.09,4.79,4.79,0,0,0-.38.48.45.45,0,0,1-.4.21,4.83,4.83,0,0,1-1.4-.28,1.91,1.91,0,0,1-1.14-1.2,1.1,1.1,0,0,1,0-.45,1.85,1.85,0,0,1,.1-.45,1.06,1.06,0,0,0,0-.6.18.18,0,0,1,.11-.22.29.29,0,0,1,.32,0l.09.1c.08.11.15.23.22.35a.54.54,0,0,1,0,.4,3.82,3.82,0,0,0-.08.54.3.3,0,0,0,.2.33c.35.11.69.22,1,.31a.53.53,0,0,0,.33-.06c.16-.08.31-.2.45-.28a1,1,0,0,1,.86-.05,2.5,2.5,0,0,1,.9.52l.41.36a.65.65,0,0,0,.63.14,3.71,3.71,0,0,0,1-.45,2.44,2.44,0,0,0,.39-.27.83.83,0,0,1,.76-.19l.2,0a.3.3,0,0,0,.3-.22c0-.2.09-.4.12-.6s.08-.63.12-.95a1.09,1.09,0,0,1,.05-.2.22.22,0,0,1,.29-.12l0,0c.2.22.4.45.57.67A1.32,1.32,0,0,1,117.17,180.12Z"/><path class="cls-9" d="M115.23,163.7a1.93,1.93,0,0,1,1.35.45,1.16,1.16,0,0,1,.45.67.37.37,0,0,0,.27.27l.26.08a2.24,2.24,0,0,1,1.41,1.1c.12.19.24.39.38.57a2.46,2.46,0,0,1,.56,1.65,1,1,0,0,0,.11.45,2,2,0,0,1-.25,2,1.91,1.91,0,0,1-.16.22,1.1,1.1,0,0,1-1,.49.3.3,0,0,0-.31.28h0a.66.66,0,0,0,.16.57l.45.45a.18.18,0,0,1-.06.24.55.55,0,0,1-.64,0,1.2,1.2,0,0,1-.55-.75.9.9,0,0,1,0-.27,7.28,7.28,0,0,1,.12-.74.76.76,0,0,1,.56-.63,2,2,0,0,0,1.09-.9,1.31,1.31,0,0,0,.14-.31.29.29,0,0,0-.08-.31,3.63,3.63,0,0,0-.37-.3.53.53,0,0,1-.13-.73c.05-.1.13-.18.19-.28a.24.24,0,0,0,0-.25l0,0a1.5,1.5,0,0,1-.73-.94.8.8,0,0,0-.27-.38.69.69,0,0,0-.51-.17,2.79,2.79,0,0,0-.54.09c-.18,0-.22.07-.33.09a.35.35,0,0,1-.36-.15,1.35,1.35,0,0,1-.26-.69,2.83,2.83,0,0,0,0-.48c0-.28-.13-.39-.39-.34a2.59,2.59,0,0,0-1.56.76,2.29,2.29,0,0,1-.61.45.54.54,0,0,1-.19,0,.25.25,0,0,1-.25-.19.58.58,0,0,1,.13-.51,1.35,1.35,0,0,0,.42-.69.83.83,0,0,1,.45-.51A2.42,2.42,0,0,1,115.23,163.7Z"/><path class="cls-9" d="M110.21,170.14a1.08,1.08,0,0,1,.13-.64c.06-.12.14-.23.2-.36a.17.17,0,0,0,0-.11h-.06a1.21,1.21,0,0,1-1-.53,2.16,2.16,0,0,1-.58-1.49,1.88,1.88,0,0,1,.08-.45.68.68,0,0,1,.35-.4,1.14,1.14,0,0,1,.25-.11,7,7,0,0,0,1.45-.57.35.35,0,0,1,.45.1,1.64,1.64,0,0,1,.22.34.39.39,0,0,1-.16.48c-.2.1-.42.17-.63.25s-.48.16-.7.26a1.47,1.47,0,0,0-.35.22.45.45,0,0,0,.13.82,1,1,0,0,0,.53.08,2.15,2.15,0,0,1,.81.09,1.19,1.19,0,0,1,.9.95.63.63,0,0,1-.27.72l-.57.37a.25.25,0,0,0,0,.35v0a.82.82,0,0,0,.2.18.45.45,0,0,0,.26.05c.18,0,.35-.11.52-.15a.41.41,0,0,1,.38.09,4,4,0,0,1,.45.49.56.56,0,0,0,.53.24.84.84,0,0,1,.26,0,.14.14,0,0,1,.09.09.75.75,0,0,1-.49.94h-.05a.32.32,0,0,1-.32-.08c-.12-.1-.22-.22-.34-.34a.31.31,0,0,0-.31-.09l-.45.09a.65.65,0,0,1-.45-.11c-.26-.18-.53-.35-.78-.55A1.83,1.83,0,0,1,110.21,170.14Z"/><path class="cls-9" d="M112.73,174.18a1.28,1.28,0,0,0-.62.22,5.77,5.77,0,0,1-.52.32.26.26,0,0,1-.31-.06,2.19,2.19,0,0,1-.29-.38c-.11-.18-.19-.36-.28-.54a.36.36,0,0,0-.45-.2,5.3,5.3,0,0,1-1.62.23,1.08,1.08,0,0,0-.45.15.21.21,0,0,1-.29-.25.81.81,0,0,1,.38-.62,1.34,1.34,0,0,1,.31-.14c.31-.09.61-.19.9-.26A1.56,1.56,0,0,1,111,173l.26.22a.48.48,0,0,0,.51.1l.33-.09a1.46,1.46,0,0,1,1,.12l.66.35a1.46,1.46,0,0,1,.52.45,1.35,1.35,0,0,0,.52.43,2.35,2.35,0,0,1,1.07,1.11.9.9,0,0,0,.42.42,2.57,2.57,0,0,1,1.19,1.35.63.63,0,0,1-.26.85l-.12,0a.36.36,0,0,1-.44-.27V178c0-.2,0-.41,0-.61a.74.74,0,0,0-.72-.75h-.06a.63.63,0,0,0-.19.08l-.31.15a.27.27,0,0,1-.35-.13,1.17,1.17,0,0,1-.13-.66,3.25,3.25,0,0,1,.06-.33.37.37,0,0,0-.45-.43,1.45,1.45,0,0,0-.31.14.24.24,0,0,1-.33-.1v0a1.52,1.52,0,0,1-.2-.72.4.4,0,0,0-.33-.38A1.53,1.53,0,0,0,112.73,174.18Z"/><path class="cls-9" d="M117.05,171.59a1,1,0,0,1-.33,1,.66.66,0,0,0-.27.59,1.64,1.64,0,0,1,0,.45,1.28,1.28,0,0,1-.22.41.47.47,0,0,1-.66.11h0l-.11-.08c-.52-.35-.52-.45,0-.78l.12-.06a.22.22,0,0,0,.09-.24,2.7,2.7,0,0,1-.17-.37.54.54,0,0,1,.29-.71h0l.37-.18a.32.32,0,0,0,.09-.42,1.47,1.47,0,0,0-.45-.42,8,8,0,0,1-.65-.5.61.61,0,0,1-.13-.23.2.2,0,0,1,.11-.22,1,1,0,0,1,.79.1,2.65,2.65,0,0,1,1,1.24A1.47,1.47,0,0,1,117.05,171.59Z"/><path class="cls-9" d="M135.73,151.59a.83.83,0,0,1,.32-.87,7.7,7.7,0,0,0,.64-.5,3.72,3.72,0,0,1,1.21-.61.73.73,0,0,1,.26,0,.29.29,0,0,1,.26.19.28.28,0,0,1-.09.31c-.28.18-.58.35-.85.55s-.6.49-.9.74a.24.24,0,0,0,0,.34l0,0a2.9,2.9,0,0,0,1,.57,6.31,6.31,0,0,1,.63.24.33.33,0,0,1,.16.4.35.35,0,0,1-.38.22,4.31,4.31,0,0,1-1.27-.45c-.18-.1-.35-.22-.53-.31a.76.76,0,0,1-.45-.57A1.15,1.15,0,0,0,135.73,151.59Z"/><path class="cls-9" d="M171.8,163.2a.77.77,0,0,1,.22-.65c.4-.45.79-.9,1.21-1.3.57-.56,1.16-1.09,1.71-1.67a7.41,7.41,0,0,1,.7-.66c.71-.64,1.38-1.32,2-2,.51-.55,1-1.08,1.57-1.61l.26-.22a.79.79,0,0,1,.7-.18l.27,0a.48.48,0,0,1,.38.26l.1.18a.37.37,0,0,1,0,.39A4.66,4.66,0,0,1,180,157c-.22.19-.41.45-.61.64-.45.45-.86.87-1.3,1.3a8,8,0,0,1-.7.64,1.47,1.47,0,0,0-.45.67,2.44,2.44,0,0,1-.5.72,7.16,7.16,0,0,1-.62.72,3.68,3.68,0,0,1-.62.52,4.08,4.08,0,0,0-.65.49l-.26.22c-.36.27-.74.53-1.09.81a.8.8,0,0,1-.95.09l-.18-.1A.63.63,0,0,1,171.8,163.2Zm8.44-7.69a.45.45,0,0,0-.18,0,1.41,1.41,0,0,0-.66.45c-.61.65-1.21,1.29-1.79,2a19.94,19.94,0,0,1-1.65,1.63,6.59,6.59,0,0,0-.58.57,24.06,24.06,0,0,1-1.79,1.84l-.19.2c-.22.26-.45.53-.64.79a.17.17,0,0,0,0,.12h.06c.22-.16.45-.31.66-.48s.66-.57,1-.82a8.29,8.29,0,0,0,1.35-1.25,23.69,23.69,0,0,1,1.67-1.8c.31-.3.64-.58.94-.9l.94-1c.11-.11.23-.22.34-.33a2,2,0,0,0,.27-.31,5.57,5.57,0,0,0,.29-.54.37.37,0,0,0,0-.11Z"/><path class="cls-9" d="M166.06,160.67a.68.68,0,0,1,.2-.58c.35-.39.7-.79,1.07-1.15s1-1,1.51-1.48c.19-.21.4-.39.61-.58.63-.56,1.22-1.17,1.79-1.8s.93-1,1.4-1.43l.22-.2a.7.7,0,0,1,.62-.16l.24,0a.42.42,0,0,1,.34.23l.09.16a.33.33,0,0,1,0,.35,4.13,4.13,0,0,1-.8,1.12c-.2.17-.36.38-.54.57-.38.39-.76.77-1.15,1.15-.2.2-.42.38-.62.57a1.3,1.3,0,0,0-.4.59,2.16,2.16,0,0,1-.45.64,6.34,6.34,0,0,1-.55.64,3.26,3.26,0,0,1-.55.45,3.59,3.59,0,0,0-.57.45l-.23.19c-.32.24-.66.45-1,.72a.71.71,0,0,1-.84.09l-.16-.09A.56.56,0,0,1,166.06,160.67Zm7.48-6.81a.42.42,0,0,0-.16,0,1.25,1.25,0,0,0-.58.41c-.53.57-1.07,1.14-1.6,1.73a17.65,17.65,0,0,1-1.46,1.44,5.84,5.84,0,0,0-.52.5,21.31,21.31,0,0,1-1.61,1.63l-.17.18c-.19.23-.38.45-.57.7a.15.15,0,0,0,0,.1h.05c.19-.14.39-.27.58-.43s.58-.5.9-.73a7.34,7.34,0,0,0,1.21-1.08,21,21,0,0,1,1.48-1.59c.28-.26.57-.51.83-.78s.55-.58.83-.87l.31-.29a1.8,1.8,0,0,0,.24-.27,5,5,0,0,0,.26-.48.32.32,0,0,0,0-.15Z"/><path class="cls-9" d="M169.1,162a1.42,1.42,0,0,1,.2-.9l.1-.14a14.92,14.92,0,0,0,2.34-2.64l.17-.22a31.06,31.06,0,0,0,2.92-2.86l.36-.31.72-.62a1.82,1.82,0,0,1,.79-.38.81.81,0,0,1,1,.45.51.51,0,0,1-.09.63,6,6,0,0,0-.65.7c-.25.32-.52.63-.78.94-.42.51-.84,1-1.3,1.49-.27.28-.51.58-.76.87L172.42,161a2.57,2.57,0,0,1-.36.31,6.92,6.92,0,0,1-2.51,1.19.36.36,0,0,1-.42-.26A.73.73,0,0,1,169.1,162Zm1.23-.63h.06l.69-.3a2.88,2.88,0,0,0,.73-.49,17.81,17.81,0,0,0,1.5-1.59c.45-.5.9-1,1.31-1.48l.83-1a3.85,3.85,0,0,1,.4-.45,12.43,12.43,0,0,0,1.14-1.26.08.08,0,0,0,0-.06.07.07,0,0,0,0,0,1.79,1.79,0,0,0-.9.33c-.21.18-.41.36-.61.55s-.31.33-.48.49a33,33,0,0,0-2.39,2.43l-2.06,2.38a2.38,2.38,0,0,0-.25.4.23.23,0,0,0,.05.11Z"/><path class="cls-9" d="M148.66,188a.77.77,0,0,1,.77.34c0,.08.11.14.16.22a.68.68,0,0,1,0,.88,3.23,3.23,0,0,1-1.57,1.12.58.58,0,0,1-.77-.28l0-.07a1,1,0,0,1-.08-.59A2,2,0,0,1,148.66,188Zm.34,1a.26.26,0,0,0-.21-.29h-.12a1.89,1.89,0,0,0-.9.78.9.9,0,0,0-.07.26.17.17,0,0,0,.14.19h.07l.13,0a2.9,2.9,0,0,0,.9-.72A.45.45,0,0,0,149,189Z"/><path class="cls-9" d="M135.41,182.71a.58.58,0,0,1,.6.36,1.8,1.8,0,0,0,.61.87.5.5,0,0,1,.13.62,3.18,3.18,0,0,1-.79,1.26,4,4,0,0,1-.37.3,1,1,0,0,1-1.56-.38,1.26,1.26,0,0,1-.13-1.42c.12-.32.26-.63.4-.94A1.09,1.09,0,0,1,135.41,182.71Zm.16,1.61v-.15a.27.27,0,0,0-.15-.21.26.26,0,0,0-.3.1,2.81,2.81,0,0,0-.45,1,.65.65,0,0,0,0,.13.14.14,0,0,0,.14.12.67.67,0,0,0,.26-.07,1.56,1.56,0,0,0,.51-.77.83.83,0,0,0,0-.2Z"/><path class="cls-9" d="M166.88,80.19a2.44,2.44,0,0,0-1.35-1.7,4.62,4.62,0,0,1-.88-.53,4.75,4.75,0,0,0-1.13-.63c-.4-.16-.79-.35-1.18-.52s-1-.45-1.44-.62c-1-.37-2.05-.59-3.07-.9a2,2,0,0,0-.45-.08,21.14,21.14,0,0,1-3.07-.6l-.45-.16a2.45,2.45,0,0,0-.52-.16,12.51,12.51,0,0,0-1.67-.13c-.68,0-1.35,0-2,0a7,7,0,0,0-1,0c-.93.09-1.86,0-2.8,0a10.72,10.72,0,0,1-1.22,0c-.75-.08-1.5,0-2.24-.09s-1.35,0-2-.06L138,73.87c-.7,0-1.41,0-2.11,0h-.21l-2.18-.08-.82,0c-.77,0-1.54-.1-2.32-.05a12.81,12.81,0,0,1-1.5,0c-1.07-.05-2.14,0-3.21,0-.7,0-1.41.05-2.11.08a8.4,8.4,0,0,1-1,0,12.88,12.88,0,0,0-1.79-.1l-1,.08c-1,.08-2,.12-3,.24s-2.17.27-3.25.35c-.93.07-1.84.28-2.77.4-.4,0-.81.13-1.21.19l-.74.13-2.08.36-.94.16-1.61.29-2,.31a1.14,1.14,0,0,0-.27.05,11.64,11.64,0,0,0-1.83.55A2.41,2.41,0,0,0,98,78.78a2,2,0,0,0,.3,1.5,5.44,5.44,0,0,0,.9,1,4.46,4.46,0,0,0,.7.54,8.6,8.6,0,0,0,1.67.76c.65.21,1.3.41,1.94.66a14.46,14.46,0,0,0,3,.78c1.24.19,2.48.33,3.72.49,1.06.13,2.12.26,3.18.42,1.28.19,2.56.45,3.84.61,1.6.22,3.2.4,4.81.58l3.94.43c1.61.18,3.21.34,4.82.42a30.33,30.33,0,0,0,3.07.06h.34c.9.09,1.82,0,2.73,0,.73,0,1.45,0,2.18,0,1.5,0,3-.07,4.49-.11a29.3,29.3,0,0,0,3.39-.38c.49-.07,1-.12,1.49-.22.9-.19,1.84-.27,2.77-.39s1.57-.22,2.36-.35c1-.16,2.06-.36,3.09-.56.53-.1,1.08-.2,1.6-.35.79-.22,1.56-.49,2.34-.75a1,1,0,0,0,.31-.14,3.78,3.78,0,0,1,1.11-.5l1.67-.58a1,1,0,0,0,.55-.39,1,1,0,0,1,.48-.36c.25-.11.5-.21.74-.34a7,7,0,0,0,.69-.45c.18-.13.35-.28.53-.43a.39.39,0,0,0,.14-.3A1,1,0,0,0,166.88,80.19Zm-.84,0,0,.13a.81.81,0,0,1,0,.19h-.14a.8.8,0,0,1-.22.22,5.17,5.17,0,0,1-.59.34A23,23,0,0,1,162,82.23c-.83.26-1.66.5-2.49.7-1.41.34-2.83.69-4.27.9-.9.13-1.75.29-2.62.45l-2.09.35c-.25,0-.5.05-.74.09l-1,.15a2.91,2.91,0,0,0-.34.05,53.5,53.5,0,0,1-5.43.49l-2.53.16a14.88,14.88,0,0,1-1.64,0c-.48,0-1,0-1.43,0h-4.71c-.7,0-1.41,0-2.11-.07l-1.91-.08c-.45,0-.9,0-1.35-.08L123.21,85,121,84.74l-2.78-.31c-.59-.07-1.18-.12-1.76-.2-1-.13-2-.29-3-.45l-3-.41-3.31-.4c-.54-.08-1.08-.15-1.62-.25a10.24,10.24,0,0,1-1.13-.26c-1.15-.35-2.29-.75-3.43-1.13a6.24,6.24,0,0,1-2.44-1.58.72.72,0,0,1-.06-1l.13-.11c.11-.09.22-.16.33-.25a1,1,0,0,1,.81-.28.86.86,0,0,0,.52-.13,11.75,11.75,0,0,1,2.22-.65,10.3,10.3,0,0,1,1.54-.29c.45-.05.9-.15,1.35-.24l1.73-.38c.45-.1.9-.22,1.35-.31a17.67,17.67,0,0,1,2-.36,2.94,2.94,0,0,0,1.23-.36,2.28,2.28,0,0,1,.78-.22c1.73-.31,3.48-.39,5.22-.55,1.56-.14,3.14-.08,4.71-.17a2.14,2.14,0,0,1,.48,0,6.3,6.3,0,0,0,1.29,0h1.37a2,2,0,0,1,.8.1,1.18,1.18,0,0,0,.45.07,8.86,8.86,0,0,1,1.5,0h.13q1.19-.05,2.39,0c.82,0,1.63.06,2.45.11.63,0,1.27,0,1.91.06l2,.07.9,0,2,.09h.48c.82,0,1.63.07,2.45.08s1.86.11,2.8,0c.18,0,1.86-.16,2.52-.12a1.54,1.54,0,0,0,.61,0,1.61,1.61,0,0,1,.81,0c.29,0,.58.09.9.12a4,4,0,0,1,.88.14,1.9,1.9,0,0,0,.81.06,2.52,2.52,0,0,1,1.14.13l.65.22c.13,0,.25.11.38.14l2.17.61a4.75,4.75,0,0,0,.67.11,5.73,5.73,0,0,1,1.4.28c.27.1.57.15.85.23l1.69.54a.26.26,0,0,1,.08.09l-.13,0c2.06,1,3.66,1.06,4.25,1.73a3.45,3.45,0,0,1,.32.43l.15.07a.26.26,0,0,1,.06.31Z"/><path class="cls-9" d="M110.14,90.23l-.19.08L108.6,91c-.45.24-.9.5-1.39.73a17.31,17.31,0,0,1-5.06,1.57l-.4.07a2.93,2.93,0,0,1-1.22.07h-.34a11.73,11.73,0,0,1-3-.45,6.59,6.59,0,0,0-1.41-.25A4.59,4.59,0,0,1,94,92.32a1.49,1.49,0,0,0-.32-.11c-.66-.17-1.3-.42-1.95-.63a2.09,2.09,0,0,1-1.13-.72,3,3,0,0,0-.39-.38,1.61,1.61,0,0,1-.52-1,7.21,7.21,0,0,0-.11-.75,2.39,2.39,0,0,1,0-1.08c.06-.29.13-.58.21-.86a2.61,2.61,0,0,1,1.35-1.63c.26-.13.53-.26.79-.41a19.81,19.81,0,0,0,2.35-1.63,2.15,2.15,0,0,1,.71-.39l.26-.08a1.75,1.75,0,0,0,1.21-1.2c0-.15.09-.31.13-.45a1,1,0,0,0,0-.54,1.72,1.72,0,0,1-.06-.45c0-.3,0-.59.06-.9a.81.81,0,0,1,.15-.45c.11-.14.32-1.26.45-1.41s.26-.32.39-.48l.09-.1a1.9,1.9,0,0,1,.45-.41,25.32,25.32,0,0,1,5.35-1.83c2.4-.41,9.48-1.44,11.56-1.75a134,134,0,0,1,14.21-1c3.16,0,14.06.15,16.27.6s2.69.19,6.17.64c5,.64,12.56,2.74,12.17,2.57-5-2.17-13.61-3.53-17.05-3.77-1-.07-3.23-.29-5.12-.48s-10.82-.58-12.09-.64-18.93,1.18-21.2,1.8-5.26,1-7.34,1.63a13,13,0,0,0-3.2,1.26,1,1,0,0,0-.22.24h-.09l-.13.13c-.19.25-.41,1-.61,1.22s-.21.3-.32.45a4.56,4.56,0,0,0-.33,1.59A3.88,3.88,0,0,1,96,80a1.6,1.6,0,0,1-1.18,1.44,4.07,4.07,0,0,0-1.11.52c-.29.18-.59.34-.9.52a5.83,5.83,0,0,0-.62.41c-.52.41-1.06.79-1.6,1.17A3.55,3.55,0,0,0,89,86.23c0,.13-.08.26-.11.4a5.34,5.34,0,0,0-.13,2,3.6,3.6,0,0,0,.9,2.1c.42.45.87.87,1.31,1.3a1.83,1.83,0,0,0,.7.42,6.53,6.53,0,0,0,.85.25,5.3,5.3,0,0,1,1.11.31l.32.11,1.53.37a2.76,2.76,0,0,0,.54.07,6,6,0,0,1,1.67.3,12.43,12.43,0,0,0,3.3.49,9.72,9.72,0,0,0,3.17-.41,28.27,28.27,0,0,0,4-1.54c.6-.28,1.17-.62,1.76-.9a1.24,1.24,0,0,0,.62-.78.41.41,0,0,0-.14-.45A.3.3,0,0,0,110.14,90.23Z"/><path class="cls-9" d="M76.13,125.37a17.69,17.69,0,0,0-.57-2.58,3.74,3.74,0,0,0-.5-1,1.9,1.9,0,0,0-.74-.64,2.73,2.73,0,0,0-.61-.25c-.54-.12-1-.38-1.51-.54s-1.35-.23-1.58-.5-1.31-1-1.52-1.17c-.57-.54-2.56-2.62-3.22-3.06a4,4,0,0,1-.37-.3c-.45-.37-.86-.76-1.31-1.12s-.69-.6-1-.9a8.76,8.76,0,0,0-.7-.63l-1-.9c-.65-.6-1.3-1.2-1.89-1.84-.2-.21-.45-.4-.66-.59l-.4-.35-1.86-1.72c-.27-.25-.56-.5-.83-.76-.86-.85-1.15-1.23-2-2.09-.19-.19-.64-1-.83-1.17s-.48-.83-.76-1.1a12.52,12.52,0,0,0-1.79-1.6l-.2-.14L48.37,99a2.73,2.73,0,0,0-.84-.45,1.34,1.34,0,0,0-.39-.08A3.51,3.51,0,0,0,46,98.6a2.69,2.69,0,0,1-.9.19.45.45,0,0,0-.2,0,4.21,4.21,0,0,0-1.29.69.93.93,0,0,1-.33.22,1.13,1.13,0,0,0-.68.68c-.06.16-.13.31-.19.45a2.18,2.18,0,0,0,0,.29,4,4,0,0,0,.3,1.8,8.9,8.9,0,0,1,.45,1,3.11,3.11,0,0,0,.64,1c.61.67,1.22,1.35,1.83,2,.9,1,1.79,1.92,2.79,2.82a17.06,17.06,0,0,0,2.21,1.75,7.24,7.24,0,0,1,.7.49c1.12.93,2.24,1.86,3.27,2.85a8,8,0,0,0,1.58,1.21,5.81,5.81,0,0,1,1.27,1c.59.59,2,1.74,2.66,2.32l.14.11c1.74,1.77,2,1.87,3,3.81a10.89,10.89,0,0,0,.42,2.15c.17.33,1.2,3.27,2.54,3.15h.07a.65.65,0,0,0,.26-.45c.06-.16-.24-.33-.24-.4a6.2,6.2,0,0,1-2.09-4.26c-.15-1.62-1.18-2.7-2.8-4A48.46,48.46,0,0,0,57,115.62c-3.71-3.12-8-5.85-10.87-9.53-.4-.45-.82-.9-1.22-1.38a6.34,6.34,0,0,1-1.48-2.87,2,2,0,0,1,.08-1.18c0-.12.07-.25.11-.37a1.15,1.15,0,0,1,.77-.69.18.18,0,0,1,.13,0,.09.09,0,0,1,0,.09,5.62,5.62,0,0,1-.29.56.68.68,0,0,0-.13.47.31.31,0,0,1,0,.11,2.83,2.83,0,0,0,.18,1.38,2.67,2.67,0,0,0,.49.9,6.66,6.66,0,0,1,.45.59,3.71,3.71,0,0,0,1.1,1.12,2.76,2.76,0,0,1,.83.81c3.07,3.41,7.22,6.3,10.77,9.51a38,38,0,0,1,3.64,3.31c1.44,1.75,2.88,3,3,3.8.25,1.56,1.19,4.07,2.6,5.12h.24a.49.49,0,0,0,.45-.77,2.56,2.56,0,0,1-.9-.93c-.23-.56-.76-1.35-.92-1.73-.48-1.12.11-1.51-1.59-3.84-.25-.34-1.41-1.2-1.71-1.5s-3.26-3.12-3.72-3.52a9.9,9.9,0,0,0-1.27-1,2.46,2.46,0,0,1-.48-.45,1.89,1.89,0,0,0-.51-.41,2.8,2.8,0,0,1-.66-.52,6.83,6.83,0,0,0-.72-.62,6.93,6.93,0,0,1-1-.9,7.42,7.42,0,0,0-1.08-1,3.36,3.36,0,0,1-.36-.31c-.68-.67-1.47-1.27-2.18-1.92s-1.53-1.5-2.27-2.28c-.24-.25-.48-.5-.73-.75a9.52,9.52,0,0,1-1.2-1.35l-.07-.09a5.49,5.49,0,0,1-1.16-1.53,2.1,2.1,0,0,1-.37-1.68,2,2,0,0,1,.52-1,1.14,1.14,0,0,1,.56-.34,1.83,1.83,0,0,1,1.39.1,6.51,6.51,0,0,1,.68.45c.65.45.51.38,1.15.85.28.2,1,1,1.25,1.16a8.69,8.69,0,0,1,1.42,1.45c.28.3.45.94.73,1.24a1,1,0,0,1,.35.56.45.45,0,0,0,.11.19,13.8,13.8,0,0,0,1.26,1.55c.49.5.95,1,1.43,1.52s.9.9,1.35,1.35a8.45,8.45,0,0,0,.78.65,4.21,4.21,0,0,1,1,.94,2.46,2.46,0,0,0,.45.45c.5.45,1,.9,1.52,1.35.34.28.7.54,1,.81l.14.11c.73.73,1.56,1.39,2.33,2.1a4.09,4.09,0,0,0,.4.35c.65.45,2.58,2.37,3.14,2.92.33.33,1.54,1,1.87,1.33s1.15.23,1.44.3a4.82,4.82,0,0,1,1,.37,3.58,3.58,0,0,0,.92.36.65.65,0,0,1,.29.14,5.81,5.81,0,0,1,1.1,1.25.67.67,0,0,1,.08.21,14.18,14.18,0,0,1,.36,1.44c.09.53.18,1.06.29,1.59a.13.13,0,0,1,.08.06c.15.45.22.62.62.31s.2-.45.22-.85a.08.08,0,0,1-.07-.09Z"/><path class="cls-9" d="M49,102.13a.72.72,0,0,1-.52.55c-.09,0-.17.07-.26.09a.79.79,0,0,1-.86-.15,2.13,2.13,0,0,1-.74-1.38.53.53,0,0,1,.5-.56h0a1.29,1.29,0,0,1,.61,0A1.67,1.67,0,0,1,49,101.74,1.24,1.24,0,0,1,49,102.13Zm-1,.14c.22,0,.39-.09.36-.22a1.31,1.31,0,0,0-.56-.81l-.22-.07a.18.18,0,0,0-.23.11v0a.55.55,0,0,0,0,.11,2,2,0,0,0,.49.79.45.45,0,0,0,.16.06Z"/><path class="cls-9" d="M185.22,156.09c-.09-.31-.19-.61-.3-.9a.41.41,0,0,0-.41-.3.24.24,0,0,1-.27-.2v0a1,1,0,0,0-.53-.6l-1.15-.59a.56.56,0,0,0-.19-.08,4.48,4.48,0,0,1-1.35-.49,6,6,0,0,0-1.44-.45l-2.83-.45-2.63-.42a1.31,1.31,0,0,1-.62-.26,1.24,1.24,0,0,0-1.41-.11c-.32.17-.65.33-1,.52a2.35,2.35,0,0,0-.63.51,3.1,3.1,0,0,1-.38.39,3.69,3.69,0,0,0-.83.9,1.42,1.42,0,0,1-.22.26l-.9.93-1.23,1.18a27.38,27.38,0,0,0-2.27,2.36,5.3,5.3,0,0,0-.73,1.15,2.12,2.12,0,0,0-.22,1.06,2.43,2.43,0,0,0,.1.67c.19.52.18,1.08.33,1.61a1.76,1.76,0,0,1-.08,1.14,8.11,8.11,0,0,1-.39.87c-.43.78-.86,1.56-1.3,2.33a4.75,4.75,0,0,1-.31.45c-.39.54-.79,1.06-1.17,1.6a13.25,13.25,0,0,1-1,1.24c-.23.28-.45.58-.66.87s-.63.84-1,1.25c-.63.81-1.27,1.61-2,2.38-.23.25-.42.54-.62.81l-.37.49-1.79,2.31c-.26.34-.52.69-.8,1q-1.35,1.63-2.73,3.24c-.21.24-.45.45-.65.7s-.62.67-.9,1a18.28,18.28,0,0,0-1.68,2.49l-.14.23c-.48.75-1,1.49-1.44,2.25a2.79,2.79,0,0,0-.39.94,1.11,1.11,0,0,0,0,.4,2.64,2.64,0,0,0,.36,1.09,2,2,0,0,1,.38.8.36.36,0,0,0,.09.18c.35.35.57.83,1.06,1a.84.84,0,0,1,.32.25,1.21,1.21,0,0,0,1,.45c.21,0,.41,0,.59,0l.36,0a6.53,6.53,0,0,0,2.16-.83c.38-.25.75-.52,1.14-.75a4.56,4.56,0,0,0,1.1-.9l2.18-2.36c1-1.15,2.07-2.31,3-3.54a20.28,20.28,0,0,0,1.79-2.66,8.25,8.25,0,0,1,.49-.82c1-1.35,1.92-2.7,3-4A9.37,9.37,0,0,0,165,176.9a6.9,6.9,0,0,1,1-1.52c.64-.74,1.24-1.52,1.85-2.28l.12-.17c.94-1.57,1.82-2.86,2-2.18,0,.25.38-.33.56-.51a4,4,0,0,1,1.69-1,4.76,4.76,0,0,0,1.28-.63,9,9,0,0,0,1.5-1.28c.39-.42.8-.81,1.21-1.2a19.81,19.81,0,0,1,2-1.67c.62-.45,1.24-.92,1.86-1.39a1.87,1.87,0,0,1,.27-.21,2.58,2.58,0,0,0,.74-.6c.62-.67,1.23-1.35,1.88-2a9.36,9.36,0,0,0,1.21-1.65,3.05,3.05,0,0,0,.36-.66,6.18,6.18,0,0,1,.59-1.23,1.09,1.09,0,0,0,.13-.31A.72.72,0,0,0,185.22,156.09Zm-39.2,36a1,1,0,0,1-.51-.45,1.46,1.46,0,0,1-.11-1.37,7.16,7.16,0,0,1,.42-.78c.45-.76.92-1.52,1.38-2.28l.6-1a12.75,12.75,0,0,1,1.58-2c.32-.36.66-.7,1-1a1.46,1.46,0,0,1,.63-.51.65.65,0,0,0,.22-.16,19.12,19.12,0,0,0,1.7-1.68c.53-.62,1.09-1.22,1.63-1.84s1-1.14,1.45-1.72c.24-.3.45-.63.67-.94a5.39,5.39,0,0,1,1-1.21,3.22,3.22,0,0,0,.49-.56c.45-.62.94-1.23,1.39-1.86.29-.4.55-.84.83-1.26l.11-.17c.78-.92,1.46-1.92,2.2-2.88a5,5,0,0,0,.36-.49l1.35-2.31a6.11,6.11,0,0,0,.54-1.47,1.5,1.5,0,0,0,0-.9,4.24,4.24,0,0,1-.18-1,3.16,3.16,0,0,0-.17-1,.62.62,0,0,1,0-.34,7.08,7.08,0,0,1,.61-1.8,1,1,0,0,1,.17-.22c.41-.45.8-.93,1.25-1.35.68-.64,1.35-1.3,2-2a3.23,3.23,0,0,0,.37-.4c.37-.52.83-1,1.23-1.46a1,1,0,0,1,.35-.32,4.35,4.35,0,0,0,.85-.56,2.45,2.45,0,0,1,1.4-.54c.86-.59.28,0,1.4,0,.54,0,2,.3,3.51.6.8.14,1.6.27,2.41.38a3.49,3.49,0,0,1,1.06.36l.45.11a1.6,1.6,0,0,1,.73.27.15.15,0,0,1,.21-.07h0l.24.12a4.94,4.94,0,0,0,.47.27,2,2,0,0,1,.71.63.18.18,0,0,1,0,.25,6.46,6.46,0,0,1-.5.55c-.73.68-1.47,1.35-2.21,2l-.15.14c-1.12,1.23-2.4,2.3-3.55,3.5-.16.17-.32.33-.45.49-.43.48-.9.9-1.35,1.38a16.81,16.81,0,0,1-1.75,1.52,8.4,8.4,0,0,1-1.52.9,4.5,4.5,0,0,1-.65.22l-.85.25a2.39,2.39,0,0,0-.9.5,2.69,2.69,0,0,1-.55.41,6,6,0,0,0-1.55,1.33c-.34.37-.67.74-1,1.12a3.7,3.7,0,0,1-.9.81,2.4,2.4,0,0,0-.82.81c-.17.27-.37.52-.56.78a3.66,3.66,0,0,0-.29.45,11.19,11.19,0,0,1-1.15,1.77,11.78,11.78,0,0,0-1,1.58,3,3,0,0,1-.45.6,2.28,2.28,0,0,0-.45.61,3.31,3.31,0,0,1-.53.79,8.4,8.4,0,0,0-.65.9,8.69,8.69,0,0,1-1,1.24,9.36,9.36,0,0,0-1.06,1.35,4.13,4.13,0,0,1-.32.45c-.72.85-1.32,1.8-2,2.7s-1.6,1.93-2.43,2.87c-.27.31-.54.62-.8.93a12.75,12.75,0,0,1-1.44,1.55l-.1.09a7.76,7.76,0,0,1-1.7,1.57,3.41,3.41,0,0,1-2,.86,2.61,2.61,0,0,1-1.34-.25Zm37.61-34.26a1.05,1.05,0,0,0-.12.24,4.56,4.56,0,0,1-1.1,1.44c-.53.57-.76.81-1.27,1.39A12.36,12.36,0,0,1,180,162c-.61.48-1,.85-1.57,1.31-.45.34-.92.66-1.38,1a7.64,7.64,0,0,0-1.06,1,4.59,4.59,0,0,1-.56.5l-2,1.61a3.48,3.48,0,0,1-1.35.68,5.38,5.38,0,0,0-2.33,1.35c-.3.27-.61.54-.9.83a6,6,0,0,0-1,1.14,7.52,7.52,0,0,1-.86,1.15l-.18.21c-.54.7-1.09,1.4-1.67,2.07a5.05,5.05,0,0,0-.9,1.45,3.69,3.69,0,0,1-.4.71,8.92,8.92,0,0,1-.73,1c-.66.81-1.27,1.67-1.87,2.52-.3.45-.63.84-.93,1.26a5.59,5.59,0,0,0-.57.85,13,13,0,0,1-1.09,1.73,18.78,18.78,0,0,1-1.39,1.78c-.49.57-.95,1.17-1.44,1.73s-1,1.06-1.5,1.59l-1.5,1.59a9.72,9.72,0,0,1-3.28,2.29,3.13,3.13,0,0,1-1.46.27h-.48a1.18,1.18,0,0,1-1-.53.12.12,0,0,1,.06-.15h.06a6.77,6.77,0,0,1,.74.12,1,1,0,0,0,.6,0l.13,0a4.65,4.65,0,0,0,1.66-.59,4.07,4.07,0,0,0,1-.75c.21-.21.45-.4.66-.59a4.81,4.81,0,0,0,1.19-1.39,3.55,3.55,0,0,1,.87-1,1.28,1.28,0,0,0,.45-.65,1.2,1.2,0,0,1,.3-.45c.57-.65,1.16-1.29,1.7-2s.87-1.11,1.35-1.64a1.1,1.1,0,0,0,.17-.22c.31-.59.72-1.11,1.07-1.67a2.7,2.7,0,0,0,.4-.86,1.56,1.56,0,0,1,.3-.61,4.35,4.35,0,0,0,.4-.63,5.25,5.25,0,0,1,.61-.9,1.4,1.4,0,0,1,.35-.32,3.69,3.69,0,0,0,.75-.69,1.51,1.51,0,0,0,.35-.58,1.35,1.35,0,0,1,.59-.81l.1-.09a4.31,4.31,0,0,0,1.1-1.2,3.29,3.29,0,0,1,.39-.48,6.75,6.75,0,0,0,1.07-1.66,2.84,2.84,0,0,1,.32-.52c.26-.37.55-.73.79-1.12a1.49,1.49,0,0,1,.7-.63,2.81,2.81,0,0,0,1.11-.9,1.9,1.9,0,0,1,.24-.24,5.72,5.72,0,0,0,1-1.17,2.63,2.63,0,0,1,.9-.83,7.19,7.19,0,0,0,.62-.42.81.81,0,0,1,.51-.15,3.52,3.52,0,0,0,2-.56,14.5,14.5,0,0,0,2.16-1.56c.57-.49,1.07-1.05,1.6-1.59.21-.21.4-.45.6-.66a7.71,7.71,0,0,1,.93-.9,4.94,4.94,0,0,0,.4-.36c.55-.55,1.11-1.08,1.62-1.66.72-.8,1.51-1.52,2.29-2.25a3.48,3.48,0,0,0,.59-.66,1.89,1.89,0,0,1,.68-.63c.34.9-.17.9-.48,1.35Z"/><path class="cls-9" d="M106.92,175.85a1.8,1.8,0,0,1-.19-.72,2.12,2.12,0,0,0-.52-1.38.31.31,0,0,1,0-.38,3.12,3.12,0,0,0,.2-.45.6.6,0,0,0,0-.33.76.76,0,0,0-.36-.48,3.19,3.19,0,0,0-2-.45,2.58,2.58,0,0,0-.84.27.5.5,0,0,0-.27.57.52.52,0,0,0,.55.32,2.32,2.32,0,0,0,.39-.1,3.72,3.72,0,0,1,1.42-.13.18.18,0,0,1,.16.21v0c-.1.18-.22.35-.31.53a.69.69,0,0,0,.24.94l.07,0a2.77,2.77,0,0,1,.48.26.21.21,0,0,1,.07.18,2.83,2.83,0,0,1-.13.39.82.82,0,0,0,.08.72c.07.12.15.22.22.34a.29.29,0,0,1-.06.37.52.52,0,0,1-.35.2l-.27,0a.49.49,0,0,0-.38.45v.41a.35.35,0,0,1-.35.36h-.26a.45.45,0,0,0-.41.39,1.07,1.07,0,0,1-.45.73,6.48,6.48,0,0,1-.81.51,5,5,0,0,1-.83.3.41.41,0,0,1-.52-.22,2.64,2.64,0,0,0-.51-.64c-.15-.14-.15-.15,0-.39a.14.14,0,0,0,0-.2l0,0-.45-.17c-.28-.1-.56-.19-.83-.3a.32.32,0,0,1-.12-.51c.11-.12.23-.22.35-.32a.5.5,0,0,0,.17-.36,5.56,5.56,0,0,0-.07-.75.45.45,0,0,0-.31-.35,1.53,1.53,0,0,0-.39-.09h-.48a.31.31,0,0,1-.31-.36,1.16,1.16,0,0,1,.76-1c.17-.07.34-.13.51-.2a.39.39,0,0,0,.21-.33.71.71,0,0,0-.21-.63c-.12-.11-.24-.21-.35-.32a.45.45,0,0,1-.12-.45,1,1,0,0,1,.08-.27.59.59,0,0,1,.42-.41,2.27,2.27,0,0,1,.4-.07l.74-.09a1,1,0,0,0,.5-.21.41.41,0,0,0,.07-.58l-.07-.07a.21.21,0,0,0-.25,0,.84.84,0,0,0-.12.17.45.45,0,0,1-.45.27h-.23l-.52,0a1,1,0,0,0-.87.45,1.89,1.89,0,0,0-.26,1.44,7.07,7.07,0,0,0-1.07.55s-1.09.59-1.27,1-.34.17-.25.93-.25.85.09,1.27a1.72,1.72,0,0,1,.51.76c.25.59,0,.67.25.93h0a2.58,2.58,0,0,0,.22.5,2,2,0,0,0,.83.79,3.92,3.92,0,0,0,1.92.34,1.29,1.29,0,0,0,.39-.11c.09,0,.16-.09.24-.12a.24.24,0,0,1,.24.09c.06.13.11.25.16.38a3.6,3.6,0,0,0,.17.37.75.75,0,0,0,.74.4,1.7,1.7,0,0,0,.45-.08,4.18,4.18,0,0,0,2.18-1.56l.25-.41a.28.28,0,0,1,.29-.14c.11,0,.22,0,.34,0a.54.54,0,0,0,.55-.33,3,3,0,0,1,.45-.67,4.75,4.75,0,0,0,.3-.37A1.5,1.5,0,0,0,106.92,175.85Zm-7,3.44h-.06c-.41,0-.82,0-1.22,0a1.06,1.06,0,0,1-.77-.4,2.06,2.06,0,0,1-.45-.9c-.05-.41-.14-.82-.14-.82a.26.26,0,0,0-.13-.13h0L97,177c-.55-1-.8-.82-.21-1.66a4.1,4.1,0,0,1,1.16-1,2.25,2.25,0,0,0-.14.42,2.48,2.48,0,0,0,0,1.09,1.1,1.1,0,0,0,.72.85c.09,0,.17,0,.26.08a.13.13,0,0,1,.05.11c0,.2-.11.4-.17.59a1,1,0,0,0,.19,1,1.52,1.52,0,0,0,.71.59l.31.13a.13.13,0,0,1,0,.11.22.22,0,0,1-.09.07Z"/><path class="cls-9" d="M96.73,86.72a1.44,1.44,0,0,1-.35-.64.27.27,0,0,0-.18,0,.29.29,0,0,0-.22.24.94.94,0,0,0,0,.27c.06.79.09,1.57.19,2.36v0a.74.74,0,0,0,.33.63c.21.09.48.21.6,0a2.64,2.64,0,0,0,.17-.49v-.22a8,8,0,0,0-.35-1.67A1.51,1.51,0,0,0,96.73,86.72Z"/><path class="cls-9" d="M105.87,88.44a.45.45,0,0,0-.53-.32,5.88,5.88,0,0,0-.9.31c-1,.47-2,1-3,1.46a7.56,7.56,0,0,1-3,.71,2.11,2.11,0,0,1-1-.21h0a5.71,5.71,0,0,1-1.06-.27l-.41-.18-.32-.08c-.32-.11-.65-.21-1-.34a1.13,1.13,0,0,1-.72-1.14A2.16,2.16,0,0,1,94.47,87c.25-.3.52-.58.77-.87a1.35,1.35,0,0,0,.26-.31,1.59,1.59,0,0,1,.78-.73c.2-.11.4-.21.6-.33a.78.78,0,0,0,.36-.55A.21.21,0,0,0,97,84h0a.63.63,0,0,0-.2,0l-1.09.57-.22.15-.8.63a5.92,5.92,0,0,0-1.29,1.31,2,2,0,0,0-.25,1.95,3.5,3.5,0,0,0,1,1.52.9.9,0,0,1,.14.14,1.72,1.72,0,0,0,.85.54,12.83,12.83,0,0,0,1.79.49,3.7,3.7,0,0,1,.78.24,7.87,7.87,0,0,0,.77.27,1.47,1.47,0,0,0,1.13-.09,4.74,4.74,0,0,1,1.17-.36,4.57,4.57,0,0,0,.78-.24c1.23-.49,2.37-1.16,3.59-1.68a2.05,2.05,0,0,0,.5-.35A.65.65,0,0,0,105.87,88.44Z"/><path class="cls-9" d="M153.57,150.5h0a8.65,8.65,0,0,0-.08-1.16,1.45,1.45,0,0,0-1-1.26,2.82,2.82,0,0,1-.38-.16,4.1,4.1,0,0,0-1-.34,2.4,2.4,0,0,1-.39-.1,5.32,5.32,0,0,0-1.6-.32.55.55,0,0,1-.31-.11.82.82,0,0,0-.9-.18l-.05.07a2,2,0,0,0-.38.57,8.7,8.7,0,0,0-1.15,2.1,4.43,4.43,0,0,0-.58-.33,3.48,3.48,0,0,0-1.05-.25,8.55,8.55,0,0,0-1.63,0,3.93,3.93,0,0,0-1.57.42,6.63,6.63,0,0,1-.62.27,5,5,0,0,0-1.25.81.45.45,0,0,0-.18.42,10.88,10.88,0,0,0,.16,1.22,7,7,0,0,1,.17,1.08,4.67,4.67,0,0,0,.26,1.06,1.16,1.16,0,0,0,.48.64,3,3,0,0,0,1.62.64c.2,0,.4.06.61.08a2.14,2.14,0,0,1,1,.39.18.18,0,0,1,0,.26l0,0a4.89,4.89,0,0,1-1.49.94,7.9,7.9,0,0,0-.85.42,1.8,1.8,0,0,0-.41.35.58.58,0,0,0-.15.63.55.55,0,0,1,.05.27,3.57,3.57,0,0,0,.11,1.08,5.94,5.94,0,0,0,.67,2,.9.9,0,0,0,.62.49c.45.12.9.23,1.31.36a7.55,7.55,0,0,0,1.29.09.36.36,0,0,0,.19-.05,9.26,9.26,0,0,1,1-.45,2.42,2.42,0,0,0,.51-.34.53.53,0,0,0,.16-.73l0-.06a.26.26,0,0,0-.35-.11c-.19.12-.38.25-.56.39a4.93,4.93,0,0,1-1.13.63,1.32,1.32,0,0,1-.8.06l-1.12-.3a.79.79,0,0,1-.5-.45,5,5,0,0,1-.51-1.7,4,4,0,0,1,0-1.23.63.63,0,0,1,.38-.53l.45-.21a11.69,11.69,0,0,0,1.95-1.12,4,4,0,0,1,1-.54,2.05,2.05,0,0,1,.66-.13.63.63,0,0,1,.54.23,8.51,8.51,0,0,1,.53.72.68.68,0,0,1,0,.77.9.9,0,0,1-.29.27c-.41.24-.84.45-1.25.71a6.72,6.72,0,0,1-.92.45,1.55,1.55,0,0,1-1.06.06l-.39-.12c-.32-.11-.64-.23-1-.33a.22.22,0,0,0-.18.07.27.27,0,0,0-.06.18.36.36,0,0,0,.08.18.82.82,0,0,0,.38.27,10.22,10.22,0,0,0,2,.53,1,1,0,0,0,.48,0c.34-.13.68-.25,1-.4a4.2,4.2,0,0,1,.85-.24.21.21,0,0,1,.26.23,3.23,3.23,0,0,1,0,.48c0,.22-.1.45-.13.67a1.87,1.87,0,0,0,0,.47.28.28,0,0,0,.35.19h0a1.05,1.05,0,0,0,.31-.25,2.53,2.53,0,0,0,.45-1.2,5.74,5.74,0,0,0,0-1.5,1.8,1.8,0,0,1,0-.48,2,2,0,0,0-.38-1.48c0-.08-.08-.17-.13-.24a5.84,5.84,0,0,0-.39-.45.8.8,0,0,0-.48-.24,3,3,0,0,0-1.35,0l-.2,0a.33.33,0,0,1-.31-.1.87.87,0,0,0-.82-.37.45.45,0,0,1-.19-.06,5,5,0,0,0-1.06-.25l-.67-.13a2.17,2.17,0,0,1-.81-.1c-.45-.13-.51-.13-.51-.52s-.18-.9-.25-1.35c-.13-.86,0-.7.65-.75a2.1,2.1,0,0,1,.66.12c.37.1.74.22,1.11.33a3.29,3.29,0,0,1,.51.2,1.08,1.08,0,0,0,.79.13.24.24,0,0,1,.27.16l.61,1.22a3.87,3.87,0,0,0,.23.41.49.49,0,0,0,.34.21.29.29,0,0,0,.31-.26v0a1.35,1.35,0,0,0-.08-.33,6.63,6.63,0,0,0-.42-.86.57.57,0,0,1,0-.64c.09-.16.17-.32.27-.47.33-.51.66-1,1-1.53a3.64,3.64,0,0,1,.36.56,4.18,4.18,0,0,1,.51.81,1.44,1.44,0,0,1,.18.84c0,.45.12.72.42.72s.23-1.06-.18-2.05a1.55,1.55,0,0,0,.77.1l1.29-.14a1.59,1.59,0,0,1,.34,0,.39.39,0,0,1,.45.41c0,.39,0,.77,0,1.16a.21.21,0,0,1-.19.17c-.69-.09-1.39-.11-2.06-.27a4,4,0,0,1,.08.65A3.21,3.21,0,0,0,150,154a5.41,5.41,0,0,1,.81.06,3.29,3.29,0,0,0,1.09,0,.72.72,0,0,0,.41-.22,12.59,12.59,0,0,0,.83-1,2.23,2.23,0,0,0,.45-1.54C153.59,151,153.58,150.75,153.57,150.5Zm-7.75-.22a11.77,11.77,0,0,1-.85,1.4.45.45,0,0,1-.45.21h-.28a1.5,1.5,0,0,1-1.06-.09l-.9-.31-1.24-.38-.32-.1a.21.21,0,0,1-.06-.29h0l0-.05a5.35,5.35,0,0,1,1.38-.73,1,1,0,0,1,.4-.07,3,3,0,0,0,.94-.09,6.48,6.48,0,0,1,1.84,0,.75.75,0,0,0,.28,0,1.63,1.63,0,0,0,.25.29.2.2,0,0,1,0,.22Zm5.86-1.47c-.1.37-.19.75-.29,1.12s-.15.48-.23.72a.34.34,0,0,1-.31.24,7.08,7.08,0,0,1-.9,0,9.1,9.1,0,0,0-1.7,0,1.61,1.61,0,0,1-.45,0,1.89,1.89,0,0,1-.31-.11l-.2-.21-.41-.38.26-.13.63-1.3.26-.64a1.19,1.19,0,0,1,.83-.29,2.33,2.33,0,0,1,1,0l1.24.36a1,1,0,0,1,.42.22A.39.39,0,0,1,151.67,148.81Zm1,3.12s-.63,1.27-.7,1.08a6.17,6.17,0,0,0-.19-.7c-.13-.32.06-.38.13-.82a5.74,5.74,0,0,1,.19-1c.13-.45.32-.63.57-.45s0,1.59,0,1.91Z"/><path class="cls-4" d="M152.56,28.74a23.15,23.15,0,0,1-.07,3.49c-.06.59-.2,1.17-.32,1.75a17.3,17.3,0,0,1-1.86,5c-.83,1.5-1.76,2.93-2.69,4.35-.5.75-1,1.51-1.47,2.27a5.12,5.12,0,0,1-.65.84,6.39,6.39,0,0,0-.75.94,15.49,15.49,0,0,0-1,1.86c-.36.75-.67,1.52-1.09,2.25a6,6,0,0,0-.35.78c-.45,1.17-.93,2.34-1.38,3.52a7.66,7.66,0,0,0-.45,2.37,15.42,15.42,0,0,0,0,1.57,7.15,7.15,0,0,0,.23,1.55,8.52,8.52,0,0,0,1,2.22,5.39,5.39,0,0,0,1.26,1.35,2.76,2.76,0,0,0,1.31.5,8,8,0,0,0,.85.09,3.86,3.86,0,0,0,2-.45,12.11,12.11,0,0,0,2.42-1.61,4,4,0,0,0,.83-1,6.86,6.86,0,0,0,.86-2,7.87,7.87,0,0,0,.13-2.48,2,2,0,0,0-.32-.86,3,3,0,0,0-.76-.84.69.69,0,0,0-.6-.15,2,2,0,0,0-.9.35.29.29,0,0,1-.26,0,4.25,4.25,0,0,1-.56-.45.32.32,0,0,1,0-.46l0,0a1.46,1.46,0,0,1,.33-.13,3.32,3.32,0,0,1,1.2,0,4,4,0,0,1,2.35,1.24,1.54,1.54,0,0,1,.39.59,2.42,2.42,0,0,1,.2,1.32,1.17,1.17,0,0,0,0,.28,7.12,7.12,0,0,1-.41,2.38,5.46,5.46,0,0,1-1.58,2.5c-.45.41-.93.81-1.39,1.22a3,3,0,0,0-.38.42,1.19,1.19,0,0,1-.49.4c-.57.23-1.12.52-1.71.71a2.75,2.75,0,0,1-1.12.11c-.33,0-.66-.1-1-.13a2.9,2.9,0,0,1-1.13-.4,7,7,0,0,1-1.35-1A8.35,8.35,0,0,1,140,62a7.94,7.94,0,0,1-.61-2.84,11.39,11.39,0,0,1,.76-4.75c.57-1.44,1.09-2.89,1.76-4.28.29-.6.54-1.21.81-1.83a13.31,13.31,0,0,1,1.13-2.06c.84-1.27,1.66-2.55,2.48-3.82s1.48-2.32,2.19-3.5c.61-1,1.16-2.07,1.68-3.15a10,10,0,0,0,.67-1.88,18.94,18.94,0,0,0,.56-3.37c0-.33,0-.66.05-1s0-.48,0-.71a9.25,9.25,0,0,0-.08-1.85c-.07-.54-.18-1.08-.26-1.62,0-.23-.07-.45-.09-.71a4,4,0,0,0-.28-1.17c-.15-.38-.28-.76-.45-1.13a4.83,4.83,0,0,0-.25-.51c-.31-.56-.62-1.12-.93-1.69a3.07,3.07,0,0,1-.18-.45.14.14,0,0,1,0-.13.39.39,0,0,1,.19,0,.27.27,0,0,1,.12.07,2.7,2.7,0,0,1,.56.64c.21.35.42.69.66,1a4.83,4.83,0,0,1,.64,1.26c.17.45.33.94.53,1.4a5.21,5.21,0,0,1,.32,1.09q.25,1.4.45,2.82A4.87,4.87,0,0,1,152.56,28.74Z"/><path class="cls-4" d="M127.11,37.19c.2-.59.51-1.61.94-2.6.2-.45.37-.93.56-1.39a3.73,3.73,0,0,1,.29-.57l1.35-2.09c.08-.12.16-.23.23-.36a12,12,0,0,1,2.1-2.6c.22-.21.42-.45.62-.68s.57-.7.9-1c.8-.81,1.52-1.7,2.24-2.57a14.13,14.13,0,0,0,1.91-2.74,9.58,9.58,0,0,1,.53-.93,11,11,0,0,0,.9-1.85,3.43,3.43,0,0,0,.12-2.44,7.9,7.9,0,0,1-.36-1.66,1.74,1.74,0,0,0-.27-.72,2.66,2.66,0,0,0-1.42-1.12c-.26-.1-.53-.22-.79-.32a4.15,4.15,0,0,0-2.3-.22c-.45.09-.9.18-1.35.25a3.62,3.62,0,0,0-1.49.79.51.51,0,0,0-.22.36,3.83,3.83,0,0,1-.55,1.23,1,1,0,0,1-.48.41.13.13,0,0,1-.13,0,1.68,1.68,0,0,1-.3-.72.45.45,0,0,1,0-.27,5.51,5.51,0,0,1,.53-.93A2.7,2.7,0,0,0,131,12a2.81,2.81,0,0,1,1.57-1.26c.51-.19,1-.33,1.57-.47a2,2,0,0,1,.63-.06,6.31,6.31,0,0,1,2.42.52c.17.08.35.14.53.21a4.22,4.22,0,0,1,1,.59,1.21,1.21,0,0,1,.26.24c.31.42.63.83.9,1.28a1.69,1.69,0,0,1,.18.68,7.84,7.84,0,0,0,.41,1.73,5,5,0,0,1,0,3.22,14,14,0,0,1-1.23,2.56c-.15.24-.29.49-.45.74s-.13.25-.2.38a7.65,7.65,0,0,1-.39.68c-.45.66-1,1.27-1.42,2a1.12,1.12,0,0,1-.14.16c-.52.56-1,1.12-1.55,1.67s-.93.88-1.37,1.35-.83,1-1.31,1.41a4.4,4.4,0,0,0-.61.69,19.46,19.46,0,0,0-1.25,2c-.13.25-.29.49-.45.74-.24.45-.48.87-.71,1.32a2.7,2.7,0,0,0-.18.54,12.81,12.81,0,0,1-.63,1.89,3.77,3.77,0,0,0-.16.62,5.59,5.59,0,0,1-.22.9,7.15,7.15,0,0,0-.53,2.28c0,.28-.08.57-.09.85a9.38,9.38,0,0,0,0,1.21c.06.85.13,1.7.26,2.55a22.77,22.77,0,0,0,.53,2.29,2.15,2.15,0,0,0,.14.4A6.77,6.77,0,0,0,131.11,51c.51.3,1,.62,1.52.9a2.79,2.79,0,0,0,1.57.38h.14a1.23,1.23,0,0,1,1,.38.38.38,0,0,1,.08.54l-.08.08a.77.77,0,0,1-.18.11,3.08,3.08,0,0,1-2,.11l-.21-.06a4.34,4.34,0,0,1-2-1.09,10.2,10.2,0,0,1-1.69-1.83q-.61-.84-1.19-1.69a5.49,5.49,0,0,1-.66-1.49c-.06-.18-.1-.36-.15-.55-.14-.55-.28-1.11-.41-1.66a6.7,6.7,0,0,1-.14-.77,22.21,22.21,0,0,1-.18-4A13.21,13.21,0,0,1,127.11,37.19Z"/><path class="cls-4" d="M107.27,42.82a15.55,15.55,0,0,0,.59,1.75,20.47,20.47,0,0,0,1.35,2.83,14.22,14.22,0,0,0,1.42,2.13c.18.22.35.45.51.69.8,1.12,1.7,2.17,2.57,3.23.57.7,1.13,1.41,1.69,2.11s1.24,1.62,1.83,2.46a17.85,17.85,0,0,1,1,1.63,23.87,23.87,0,0,1,1.11,2.25,8,8,0,0,1,.6,2.19c0,.29.08.58.11.86a1.27,1.27,0,0,1,.08.62,6.07,6.07,0,0,1,0,1.63c0,.31-.07.63-.1.95s.24.22.56,0a2.49,2.49,0,0,0,.58-1,10.34,10.34,0,0,0,0-2.49c-.08-.71-.15-1.42-.24-2.12a5.86,5.86,0,0,0-.48-1.64c-.2-.45-.41-.9-.64-1.35a22.4,22.4,0,0,0-2.5-3.89c-.48-.59-.93-1.2-1.41-1.8-.66-.81-1.35-1.61-2-2.42l-1.29-1.61q-.75-.95-1.49-1.91a17.66,17.66,0,0,1-1.35-2.11c-.45-.81-.81-1.66-1.22-2.5a5.71,5.71,0,0,1-.57-2c0-.62-.13-1.23-.19-1.84a12.51,12.51,0,0,1,0-2.35,3.74,3.74,0,0,1,.29-1.25c.21-.48.39-1,.61-1.44a6.63,6.63,0,0,1,1.37-1.89,2.3,2.3,0,0,1,1-.61l1.77-.54a3.13,3.13,0,0,1,1.62-.08l.21,0c1.19.22.83.09,1.9.87a5.46,5.46,0,0,1,1,1,4.44,4.44,0,0,1,.45.64,1,1,0,0,1,.08.9.51.51,0,0,0,0,.14.18.18,0,0,0,.18.18,4.42,4.42,0,0,0,.56-.09.78.78,0,0,0,.56-.81,2.25,2.25,0,0,0-.12-.55,5.49,5.49,0,0,0-.66-1.25c-.18-.26-.37-.49-.55-.74a2.62,2.62,0,0,0-.53-.57l-.11-.09a3.65,3.65,0,0,0-2-1,2.53,2.53,0,0,0-1.2-.08c-.63.12-1.27.2-1.88.36a5,5,0,0,0-2.12,1.12,9.33,9.33,0,0,0-2.51,3.32c-.08.2-.19.38-.29.58a8.48,8.48,0,0,0-.66,2,5.93,5.93,0,0,0-.08,1.42A18.83,18.83,0,0,0,107.27,42.82Z"/></g></svg>